<svg xmlns="http://www.w3.org/2000/svg" class="ionicon s-ion-icon" viewBox="0 0 512 512">
  <g>
    <path stroke-miterlimit="10" class="ionicon-fill-none ionicon-stroke-width" d="M228.4022202 183.44075087c-12.76202577-12.5809058-35.2641538-30.3715828-74.6099799-55.0834724C93.1297455 90.2650483 33.32165207 87 19.22403004 92.2240773 13.24322068 94.40077614 4.27200667 98.97184376 1.922403 105.71961024 0 111.3790273 8.54401335 110.07300798 12.38881936 129.01028811c3.844806 19.15495003-2.34960367 32.43281312-2.34960367 32.43281312s29.26324572 13.49553296 39.51606174 38.09223016c10.03921569 24.81436707 10.03921569 54.63514154 10.03921569 57.68251995 0 3.04737841 5.126408 9.35980513 11.10721735 13.49553297 5.98080934 4.13572786 12.17521903 8.2714557 12.17521903 8.2714557s11.10721735 1.08834943 20.2920317 0c9.18481435-1.08834943 74.97371715-22.63766821 107.22736755-40.26892903"/>
    <path stroke-miterlimit="10" class="ionicon-fill-none ionicon-stroke-width" d="M280.91980361 186.1508362c12.19950505-12.69390588 35.0283008-31.25158264 77.28795609-57.79355773C418.8702545 90.2650483 478.67834793 87 492.77596996 92.22407729c5.98080936 2.17669886 14.95202337 6.74776648 17.30162704 13.49553296 1.922403 5.65941705-6.62161035 4.35339774-10.46641636 23.29067787-3.844806 19.15495002 2.34960367 32.43281312 2.34960367 32.43281312s-29.26324572 13.49553296-39.51606174 38.09223015c-10.03921569 24.81436708-10.03921569 54.63514154-10.03921569 57.68251996 0 3.0473784-5.126408 9.35980513-11.10721735 13.49553297-5.98080934 4.13572785-12.17521903 8.2714557-12.17521903 8.2714557s-11.10721735 1.08834943-20.2920317 0c-9.18481435-1.08834944-74.97371715-22.63766821-107.22736755-40.26892904"/>
    <path stroke-miterlimit="10" class="ionicon-fill-none ionicon-stroke-width" d="M224.28318585 407.19240325c-13.02962037-4.13572785-31.82928514-.65300965-41.65490049 0-10.03921569.87067955-16.87442637-3.0473784-30.3312474-4.57106762-9.18481435-1.08834943-10.25281602 4.13572784-18.3696287 1.08834943-2.99040467-1.08834943-4.05840634-15.45456195-11.10721737-31.99747333-7.048811-16.54291139-24.35043804-28.95009492-24.35043804-52.67611257 0-23.72601764 8.33176322-40.79549251 8.33176322-40.79549251"/>
    <path stroke-miterlimit="10" class="ionicon-fill-none ionicon-stroke-width" d="M405.32753856 278.65044525c4.30805114 13.38069491 8.41630792 29.09957161 8.41630792 40.38565391 0 23.72601764-17.30162704 36.13320118-24.35043805 52.67611257-7.04881102 16.54291138-8.11681269 30.9091239-11.10721736 31.99747333-8.11681268 3.04737841-9.18481434-2.17669886-18.3696287-1.08834943-13.45682103 1.5236892-20.2920317 5.44174717-30.3312474 4.57106762-9.82561535-.65300965-20.2920317-5.65941705-33.32165206-1.5236892-2.88112293.94988708-6.03118488 2.10532133-8.78335639 3.1537171"/>
    <path stroke-miterlimit="10" class="ionicon-fill-none ionicon-stroke-width" d="M208.47392273 290.08599854c-7.04881287 6.31243896-7.04881287 20.6786499-1.92240906 33.08581542 4.9127655 12.4071045 37.3795166 35.04449463 37.38005066 35.04486084v-.21765136h26.48643494s3.84481811-.87069702 7.04882812-3.0473938c3.20401001-2.17669678 6.19439698-5.22409058 9.18481446-9.35980225 1.97021484-2.724823 4.40405273-2.70950317 6.99603271-2.6932373 1.34210205.00845337 2.72665405.01715088 4.11117554-.3541565 4.05841064-1.08831787 7.0487976-10.23046875 10.03921509-15.4545288 2.99038696-5.0064087-1.06802369-15.45458985-5.12640381-22.63769532-4.05841065-7.18310547-1.9223938-10.44815063 1.06799316-12.40716552 2.99038696-2.17669678 1.9223938-7.18310547 2.99038696-12.40719605.7980957-3.9038086.40341187-11.81869507.15292359-16.84164429-.0847168-1.69882202-.15292359-3.06680298-.15292359-3.8369751 0-3.0473938 0-10.23049926-1.9223938-14.3662262-2.13598632-4.13572692-4.05838012-8.27145385-5.1264038-14.36621093-1.06799317-6.3124237-6.19439698-10.44815063-9.18481446-13.49552917-3.20401-3.04737854-4.05841064-17.41358948-5.1264038-21.5493164-1.06799317-4.1357422-4.05841065-8.27145387-7.04879761-12.40719605-3.20401001-4.13572693-7.04882813-10.23046875-9.18481446-18.50193787-2.13601684-8.27145386-5.1264038-8.27145386-5.1264038-8.27145386s-2.99041748 1.95903015-11.10722352 0c-8.11682128-1.95903015-11.1072235 8.27145386-12.17521667 13.49552918-1.06800842 5.22407531-1.06800842 8.27145385-8.11682129 12.40719604-7.04881287 4.13572693-4.05841064 14.36621094-4.05841064 14.36621094l-5.12640381 4.13571167c-3.85198975 3.24272156-3.50190735 9.69703674-3.17112732 15.79559326.09109497 1.6795044.1807251 3.332016.1807251 4.88305664 0 7.18310547 0 6.09475708-5.98080445 10.23048401-5.98080444 4.13572693-5.1264038 8.27145386-7.04881286 14.36621094-1.9223938 6.09475708 2.13600158 13.2778778 5.1264038 15.45457458 2.1673584 1.41983033 1.7540741 6.15548706 1.36238099 10.64364624-.14874268 1.70437622-.29437256 3.3730774-.29437256 4.81091309 0 .98675537.06858825 1.86480713.13235473 2.68106079.27380372 3.50509644.45861817 5.87094116-5.25875854 10.81445313z"/>
    <path stroke-miterlimit="10" class="ionicon-fill-none ionicon-stroke-width" d="M212.95575222 424.35249043s32.5646623-40.11572782 30.42225031-67.98850575"/>
    <path stroke-miterlimit="10" class="ionicon-fill-none ionicon-stroke-width" d="M271.12229293 357.01149426c.29992802 10.84849039 1.44256256 22.85303543 4.5976034 30.7522165 7.04495495 17.63824228 18.1460961 28.9615583 18.1460961 28.9615583s-11.10114115 0-23.2696997-5.22614585c-12.16855855-5.22614587-22.20228228-7.18595057-27.32588587-3.04858508-5.1236036 4.13736547-6.61798798 3.26634115-9.60675675 6.31492624-2.98876877 3.04858508-7.89888889 5.00838978-7.89888889 5.00838978-7.25843843 4.13736548-12.809009 5.22614586-12.809009 5.22614586"/>
  </g>
</svg>

