<svg xmlns="http://www.w3.org/2000/svg" class="ionicon s-ion-icon" viewBox="0 0 512 512">
  <g transform="matrix(0.808624,0,0,0.808624,5.10391,15.8386)">
    <g>
      <path stroke-miterlimit="10" class="ionicon-fill-none ionicon-stroke-width" d="M209.023,100.465C198.629,90.229 180.302,75.755 148.257,55.649C98.85,24.656 50.139,22 38.657,26.25C33.786,28.021 26.479,31.74 24.566,37.23C23,41.835 29.959,40.772 33.09,56.18C36.222,71.765 31.176,82.568 31.176,82.568C31.176,82.568 55.01,93.548 63.36,113.56C71.537,133.749 71.537,158.011 71.537,160.491C71.537,162.97 75.712,168.106 80.583,171.471C85.454,174.836 90.499,178.201 90.499,178.201C90.499,178.201 99.546,179.086 107.026,178.201C114.507,177.315 168.089,159.782 194.358,145.438"/>
      <path stroke-miterlimit="10" class="ionicon-fill-none ionicon-stroke-width" d="M251.796,102.67C261.732,92.342 280.325,77.243 314.743,55.649C364.15,24.656 412.861,22 424.343,26.25C429.214,28.021 436.521,31.74 438.434,37.23C440,41.835 433.041,40.772 429.91,56.18C426.778,71.765 431.824,82.568 431.824,82.568C431.824,82.568 407.99,93.548 399.64,113.56C391.463,133.749 391.463,158.011 391.463,160.491C391.463,162.97 387.288,168.106 382.417,171.471C377.546,174.836 372.501,178.201 372.501,178.201C372.501,178.201 363.454,179.086 355.974,178.201C348.493,177.315 294.911,159.782 268.642,145.438"/>
      <path stroke-miterlimit="10" class="ionicon-fill-none ionicon-stroke-width" d="M205.668,282.512C195.056,279.147 179.745,281.98 171.742,282.512C163.566,283.22 157.999,280.032 147.039,278.793C139.558,277.907 138.688,282.157 132.078,279.678C129.642,278.793 128.772,267.104 123.031,253.645C117.29,240.185 103.199,230.09 103.199,210.787C103.199,191.483 109.985,177.595 109.985,177.595"/>
      <path stroke-miterlimit="10" class="ionicon-fill-none ionicon-stroke-width" d="M353.12,177.929C356.629,188.815 359.975,201.604 359.975,210.787C359.975,230.09 345.884,240.185 340.143,253.645C334.402,267.104 333.532,278.793 331.096,279.678C324.486,282.157 323.616,277.907 316.135,278.793C305.175,280.032 299.608,283.22 291.432,282.512C283.429,281.98 274.905,277.907 264.293,281.272C261.946,282.045 259.381,282.985 257.139,283.838"/>
      <path stroke-miterlimit="10" class="ionicon-fill-none ionicon-stroke-width" d="M192.792,187.233C187.051,192.369 187.051,204.057 191.227,214.152C195.228,224.246 221.67,242.664 221.671,242.664L221.671,242.487L243.243,242.487C243.243,242.487 246.374,241.779 248.984,240.008C251.593,238.237 254.029,235.758 256.464,232.393C258.069,230.176 260.051,230.188 262.162,230.202C263.255,230.208 264.383,230.215 265.511,229.913C268.816,229.028 271.252,221.59 273.687,217.339C276.123,213.266 272.817,204.765 269.512,198.921C266.206,193.077 267.946,190.42 270.382,188.827C272.817,187.056 271.947,182.982 272.817,178.732C273.467,175.556 273.146,169.116 272.942,165.029C272.873,163.647 272.817,162.534 272.817,161.908C272.817,159.428 272.817,153.584 271.252,150.219C269.512,146.854 267.946,143.489 267.076,138.531C266.206,133.395 262.031,130.03 259.596,127.551C256.986,125.071 256.29,113.383 255.421,110.018C254.551,106.653 252.115,103.288 249.68,99.923C247.07,96.558 243.939,91.6 242.199,84.87C240.459,78.14 238.024,78.14 238.024,78.14C238.024,78.14 235.588,79.734 228.977,78.14C222.367,76.546 219.931,84.87 219.061,89.12C218.191,93.371 218.191,95.85 212.451,99.215C206.71,102.58 209.145,110.903 209.145,110.903L204.97,114.268C201.833,116.907 202.118,122.158 202.387,127.12C202.461,128.486 202.534,129.831 202.534,131.093C202.534,136.937 202.534,136.051 197.663,139.416C192.792,142.781 193.488,146.146 191.922,151.105C190.357,156.063 193.662,161.908 196.098,163.679C197.863,164.834 197.526,168.687 197.207,172.338C197.086,173.725 196.967,175.083 196.967,176.253C196.967,177.055 197.023,177.77 197.075,178.434C197.298,181.286 197.449,183.211 192.792,187.233Z"/>
      <path stroke-miterlimit="10" class="ionicon-fill-none ionicon-stroke-width" d="M196.442,296.473C196.442,296.473 222.965,263.835 221.22,241.157"/>
      <path stroke-miterlimit="10" class="ionicon-fill-none ionicon-stroke-width" d="M243.816,241.684C244.061,250.51 244.991,260.277 247.561,266.704C253.299,281.055 262.34,290.268 262.34,290.268C262.34,290.268 253.299,290.268 243.388,286.016C233.477,281.764 225.305,280.169 221.132,283.535C216.959,286.901 215.742,286.193 213.308,288.673C210.874,291.153 206.875,292.748 206.875,292.748C200.963,296.114 196.442,297 196.442,297"/>
    </g>
  </g>
  <g transform="matrix(0.517835,0,0,0.517835,270.375,266.416)">
    <g>
      <path stroke-miterlimit="10" class="ionicon-fill-none ionicon-stroke-width" d="M209.023,100.465C198.629,90.229 180.302,75.755 148.257,55.649C98.85,24.656 50.139,22 38.657,26.25C33.786,28.021 26.479,31.74 24.566,37.23C23,41.835 29.959,40.772 33.09,56.18C36.222,71.765 31.176,82.568 31.176,82.568C31.176,82.568 55.01,93.548 63.36,113.56C71.537,133.749 71.537,158.011 71.537,160.491C71.537,162.97 75.712,168.106 80.583,171.471C85.454,174.836 90.499,178.201 90.499,178.201C90.499,178.201 99.546,179.086 107.026,178.201C114.507,177.315 168.089,159.782 194.358,145.438"/>
      <path stroke-miterlimit="10" class="ionicon-fill-none ionicon-stroke-width" d="M251.796,102.67C261.732,92.342 280.325,77.243 314.743,55.649C364.15,24.656 412.861,22 424.343,26.25C429.214,28.021 436.521,31.74 438.434,37.23C440,41.835 433.041,40.772 429.91,56.18C426.778,71.765 431.824,82.568 431.824,82.568C431.824,82.568 407.99,93.548 399.64,113.56C391.463,133.749 391.463,158.011 391.463,160.491C391.463,162.97 387.288,168.106 382.417,171.471C377.546,174.836 372.501,178.201 372.501,178.201C372.501,178.201 363.454,179.086 355.974,178.201C348.493,177.315 294.911,159.782 268.642,145.438"/>
      <path stroke-miterlimit="10" class="ionicon-fill-none ionicon-stroke-width" d="M205.668,282.512C195.056,279.147 179.745,281.98 171.742,282.512C163.566,283.22 157.999,280.032 147.039,278.793C139.558,277.907 138.688,282.157 132.078,279.678C129.642,278.793 128.772,267.104 123.031,253.645C117.29,240.185 103.199,230.09 103.199,210.787C103.199,191.483 109.985,177.595 109.985,177.595"/>
      <path stroke-miterlimit="10" class="ionicon-fill-none ionicon-stroke-width" d="M353.12,177.929C356.629,188.815 359.975,201.604 359.975,210.787C359.975,230.09 345.884,240.185 340.143,253.645C334.402,267.104 333.532,278.793 331.096,279.678C324.486,282.157 323.616,277.907 316.135,278.793C305.175,280.032 299.608,283.22 291.432,282.512C283.429,281.98 274.905,277.907 264.293,281.272C261.946,282.045 259.381,282.985 257.139,283.838"/>
      <path stroke-miterlimit="10" class="ionicon-fill-none ionicon-stroke-width" d="M192.792,187.233C187.051,192.369 187.051,204.057 191.227,214.152C195.228,224.246 221.67,242.664 221.671,242.664L221.671,242.487L243.243,242.487C243.243,242.487 246.374,241.779 248.984,240.008C251.593,238.237 254.029,235.758 256.464,232.393C258.069,230.176 260.051,230.188 262.162,230.202C263.255,230.208 264.383,230.215 265.511,229.913C268.816,229.028 271.252,221.59 273.687,217.339C276.123,213.266 272.817,204.765 269.512,198.921C266.206,193.077 267.946,190.42 270.382,188.827C272.817,187.056 271.947,182.982 272.817,178.732C273.467,175.556 273.146,169.116 272.942,165.029C272.873,163.647 272.817,162.534 272.817,161.908C272.817,159.428 272.817,153.584 271.252,150.219C269.512,146.854 267.946,143.489 267.076,138.531C266.206,133.395 262.031,130.03 259.596,127.551C256.986,125.071 256.29,113.383 255.421,110.018C254.551,106.653 252.115,103.288 249.68,99.923C247.07,96.558 243.939,91.6 242.199,84.87C240.459,78.14 238.024,78.14 238.024,78.14C238.024,78.14 235.588,79.734 228.977,78.14C222.367,76.546 219.931,84.87 219.061,89.12C218.191,93.371 218.191,95.85 212.451,99.215C206.71,102.58 209.145,110.903 209.145,110.903L204.97,114.268C201.833,116.907 202.118,122.158 202.387,127.12C202.461,128.486 202.534,129.831 202.534,131.093C202.534,136.937 202.534,136.051 197.663,139.416C192.792,142.781 193.488,146.146 191.922,151.105C190.357,156.063 193.662,161.908 196.098,163.679C197.863,164.834 197.526,168.687 197.207,172.338C197.086,173.725 196.967,175.083 196.967,176.253C196.967,177.055 197.023,177.77 197.075,178.434C197.298,181.286 197.449,183.211 192.792,187.233Z"/>
      <path stroke-miterlimit="10" class="ionicon-fill-none ionicon-stroke-width" d="M196.442,296.473C196.442,296.473 222.965,263.835 221.22,241.157"/>
      <path stroke-miterlimit="10" class="ionicon-fill-none ionicon-stroke-width" d="M243.816,241.684C244.061,250.51 244.991,260.277 247.561,266.704C253.299,281.055 262.34,290.268 262.34,290.268C262.34,290.268 253.299,290.268 243.388,286.016C233.477,281.764 225.305,280.169 221.132,283.535C216.959,286.901 215.742,286.193 213.308,288.673C210.874,291.153 206.875,292.748 206.875,292.748C200.963,296.114 196.442,297 196.442,297"/>
    </g>
  </g>
  <g transform="matrix(0.344049,0,0,0.344049,112.653,390.984)">
    <g>
      <path stroke-miterlimit="10" class="ionicon-fill-none ionicon-stroke-width" d="M209.023,100.465C198.629,90.229 180.302,75.755 148.257,55.649C98.85,24.656 50.139,22 38.657,26.25C33.786,28.021 26.479,31.74 24.566,37.23C23,41.835 29.959,40.772 33.09,56.18C36.222,71.765 31.176,82.568 31.176,82.568C31.176,82.568 55.01,93.548 63.36,113.56C71.537,133.749 71.537,158.011 71.537,160.491C71.537,162.97 75.712,168.106 80.583,171.471C85.454,174.836 90.499,178.201 90.499,178.201C90.499,178.201 99.546,179.086 107.026,178.201C114.507,177.315 168.089,159.782 194.358,145.438"/>
      <path stroke-miterlimit="10" class="ionicon-fill-none ionicon-stroke-width" d="M251.796,102.67C261.732,92.342 280.325,77.243 314.743,55.649C364.15,24.656 412.861,22 424.343,26.25C429.214,28.021 436.521,31.74 438.434,37.23C440,41.835 433.041,40.772 429.91,56.18C426.778,71.765 431.824,82.568 431.824,82.568C431.824,82.568 407.99,93.548 399.64,113.56C391.463,133.749 391.463,158.011 391.463,160.491C391.463,162.97 387.288,168.106 382.417,171.471C377.546,174.836 372.501,178.201 372.501,178.201C372.501,178.201 363.454,179.086 355.974,178.201C348.493,177.315 294.911,159.782 268.642,145.438"/>
      <path stroke-miterlimit="10" class="ionicon-fill-none ionicon-stroke-width" d="M205.668,282.512C195.056,279.147 179.745,281.98 171.742,282.512C163.566,283.22 157.999,280.032 147.039,278.793C139.558,277.907 138.688,282.157 132.078,279.678C129.642,278.793 128.772,267.104 123.031,253.645C117.29,240.185 103.199,230.09 103.199,210.787C103.199,191.483 109.985,177.595 109.985,177.595"/>
      <path stroke-miterlimit="10" class="ionicon-fill-none ionicon-stroke-width" d="M353.12,177.929C356.629,188.815 359.975,201.604 359.975,210.787C359.975,230.09 345.884,240.185 340.143,253.645C334.402,267.104 333.532,278.793 331.096,279.678C324.486,282.157 323.616,277.907 316.135,278.793C305.175,280.032 299.608,283.22 291.432,282.512C283.429,281.98 274.905,277.907 264.293,281.272C261.946,282.045 259.381,282.985 257.139,283.838"/>
      <path stroke-miterlimit="10" class="ionicon-fill-none ionicon-stroke-width" d="M192.792,187.233C187.051,192.369 187.051,204.057 191.227,214.152C195.228,224.246 221.67,242.664 221.671,242.664L221.671,242.487L243.243,242.487C243.243,242.487 246.374,241.779 248.984,240.008C251.593,238.237 254.029,235.758 256.464,232.393C258.069,230.176 260.051,230.188 262.162,230.202C263.255,230.208 264.383,230.215 265.511,229.913C268.816,229.028 271.252,221.59 273.687,217.339C276.123,213.266 272.817,204.765 269.512,198.921C266.206,193.077 267.946,190.42 270.382,188.827C272.817,187.056 271.947,182.982 272.817,178.732C273.467,175.556 273.146,169.116 272.942,165.029C272.873,163.647 272.817,162.534 272.817,161.908C272.817,159.428 272.817,153.584 271.252,150.219C269.512,146.854 267.946,143.489 267.076,138.531C266.206,133.395 262.031,130.03 259.596,127.551C256.986,125.071 256.29,113.383 255.421,110.018C254.551,106.653 252.115,103.288 249.68,99.923C247.07,96.558 243.939,91.6 242.199,84.87C240.459,78.14 238.024,78.14 238.024,78.14C238.024,78.14 235.588,79.734 228.977,78.14C222.367,76.546 219.931,84.87 219.061,89.12C218.191,93.371 218.191,95.85 212.451,99.215C206.71,102.58 209.145,110.903 209.145,110.903L204.97,114.268C201.833,116.907 202.118,122.158 202.387,127.12C202.461,128.486 202.534,129.831 202.534,131.093C202.534,136.937 202.534,136.051 197.663,139.416C192.792,142.781 193.488,146.146 191.922,151.105C190.357,156.063 193.662,161.908 196.098,163.679C197.863,164.834 197.526,168.687 197.207,172.338C197.086,173.725 196.967,175.083 196.967,176.253C196.967,177.055 197.023,177.77 197.075,178.434C197.298,181.286 197.449,183.211 192.792,187.233Z"/>
      <path stroke-miterlimit="10" class="ionicon-fill-none ionicon-stroke-width" d="M196.442,296.473C196.442,296.473 222.965,263.835 221.22,241.157"/>
      <path stroke-miterlimit="10" class="ionicon-fill-none ionicon-stroke-width" d="M243.816,241.684C244.061,250.51 244.991,260.277 247.561,266.704C253.299,281.055 262.34,290.268 262.34,290.268C262.34,290.268 253.299,290.268 243.388,286.016C233.477,281.764 225.305,280.169 221.132,283.535C216.959,286.901 215.742,286.193 213.308,288.673C210.874,291.153 206.875,292.748 206.875,292.748C200.963,296.114 196.442,297 196.442,297"/>
    </g>
  </g>
</svg>

