<svg xmlns="http://www.w3.org/2000/svg" xmlns:xlink="http://www.w3.org/1999/xlink" width="512" height="512" viewBox="0 0 512 512" class="ionicon s-ion-icon">
  <defs>
    <rect id="rect-1" width="512" height="512" x="0" y="0"/>
    <mask id="mask-2" maskContentUnits="userSpaceOnUse" maskUnits="userSpaceOnUse">
      <rect width="512" height="512" x="0" y="0" fill="black"/>
      <use fill="white" xlink:href="#rect-1"/>
    </mask>
  </defs>
  <g>
    <use fill="none" xlink:href="#rect-1"/>
    <g mask="url(#mask-2)">
      <path fill-rule="evenodd" d="M371.1862065 197.91675813c.88458811-3.73360434 4.74195926-6.07133814 8.61484634-5.21675136 31.61713227 6.95719253 50.44506793 20.69440672 49.13473434 35.85223269-1.4164408 16.38696046-17.4912689 37.4480857-32.06244691 51.69400093-8.55203398 8.36153139-29.50056467 26.89147902-51.00395084 31.16570343-2.08884032 27.65094784-18.20892533 41.07682554-28.11654982 46.77035891-.00947478.00521127-.01892374.01042254-.02839852.01629751-.00606696.00324475-.01215973.0071532-.01822669.01042254-8.17020295 4.68458732-17.43787966 7.26396916-26.0953238 7.26396916-14.46238586 0-27.79014754-7.95637975-35.61097122-19.52193249-7.82081078 11.56555274-21.14857246 19.5219325-35.61097124 19.5219325-7.13288242 0-14.64621466-1.7332634-21.7263791-5.01090621-9.27307243-4.28400783-30.12903685-17.38681139-32.52873772-49.05014192-21.5040445-4.27294617-42.45462762-22.80417204-51.00799116-31.16634255-14.5711974-14.2459398-30.64601258-35.30705276-32.06245014-51.69400093-.48521133-5.6082357 1.58740957-14.04206117 14.2143861-22.37493058 15.18075874-10.02119788 40.7631407-16.6045064 68.4316522-17.61216193 20.67825423-.75296701 51.06205163 1.24084757 83.09679708 13.99320552v-6.86144774l-33.5532273-38.28702638c-2.56323762-2.925919-2.18073535-7.30111175.8541888-9.77172678 3.03358169-2.47126644 7.57348548-2.1038965 10.1380785.82331916l29.75465398 33.95286622 29.7546798-33.95351763c2.56389595-2.92656426 7.1031156-3.29393419 10.13806557-.82331916 3.0355954 2.47061503 3.41742643 6.8464592.8541759 9.77172678l-33.55321439 38.28702638v6.88164141c21.8594778-8.6676689 46.02274693-13.52031966 70.56645296-14.09351017 3.9560173-.10096835 7.27004728 2.93632924 7.36600847 6.76438785.09596118 3.8280586-3.04641265 7.0066873-7.0179975 7.09983875-24.87077955.580356-49.28609845 5.86942602-70.91513517 15.32588942v13.40631085c19.68683603 28.27757844 55.05319272 68.36952316 75.32462521 67.32149258 12.75467952-.66244579 31.18865023-11.34999791 48.10954773-27.89263277 15.59096892-15.24379962 27.0927573-32.9712609 27.96991018-43.10968776.43860225-5.0721632-11.33488253-15.31220983-37.99851237-21.17903022-3.87355831-.85198114-6.29693322-4.56995167-5.41231928-8.30355601zm-245.81483818 72.59229858c16.92088459 16.54261027 35.3548553 27.23016239 48.10887648 27.89260818 20.29169871 1.06887566 55.64250076-39.04651978 75.32463812-67.3221317v-13.40502033c-31.6475316-13.86814733-62.1705463-15.99613982-82.55346881-15.25293164-24.69237875.89887028-48.00751958 6.72204628-60.84533577 15.19625909-5.24271556 3.46134008-8.2350742 7.11742678-8.00463312 9.78149176.8758104 10.13780004 12.3782894 27.86590043 27.9699231 43.10972464zm166.23887687 81.09514878c-14.87261542 0-28.41661893-13.55092359-28.41661893-28.42995892v-58.92672706l41.32674162 84.80272136c-4.31014685 1.64924395-8.79935928 2.55396462-12.9101227 2.55396462zm-71.2219812 0c14.87193128 0 28.41661893-13.55092359 28.41661893-28.4299835h.00067124V266.7252816l-37.44505101 83.58662733c3.07481117.83830156 6.15163606 1.29229656 9.02776084 1.29229656zm-21.9770864-7.37016108c-7.66944666-5.36655078-16.14712815-15.16499146-17.8183295-32.58889627 13.2750566-2.60155432 28.68961908-13.1659779 46.76677528-32.03006134l-28.94844578 64.61895761zm90.08775142-60.6795327l28.32200022 58.11708748c6.3564152-5.53852268 13.09460981-14.87318494 14.58336357-30.02711475-12.32015633-2.41394861-26.48185349-11.68804215-42.9053638-28.08997273z"/>
      <path fill-rule="evenodd" d="M359.85726313 189.51224327c-.91433188-.09575014-1.8347458-.18498667-2.76124174-.26836095-3.95534702-.35303795-7.46197537 2.448468-7.83027609 6.26153842-.3689765 3.81307041 2.53958553 7.19233405 6.49560833 7.54797744.85418737.0762093 1.70296848.15893222 2.54634335.24686602.26355464.02800855.52440616.04103578.78323034.04103578 3.62556582 0 6.7442958-2.63410604 7.14368245-6.18793456.42776946-3.80785953-2.42808165-7.2288103-6.37734664-7.64112215z"/>
    </g>
  </g>
</svg>
