<?xml version="1.0" encoding="utf-8"?>
<!-- Generator: Adobe Illustrator 19.2.1, SVG Export Plug-In . SVG Version: 6.00 Build 0)  -->
<svg version="1.1" id="layer" xmlns="http://www.w3.org/2000/svg" xmlns:xlink="http://www.w3.org/1999/xlink" x="0px" y="0px"
	 viewBox="0 0 652 652" style="enable-background:new 0 0 652 652;" xml:space="preserve">
<style type="text/css">
	.st0{fill:#FFFFFF;}
	.st1{fill:none;stroke:#000000;stroke-width:3.2529;}
	.st2{fill:#429C59;}
</style>
<g>
	<path class="st0" d="M74.2,299.7c0,0-8.5,19.9-8.5,30.8c0,10.9,8.1,16.6,11.4,24.2c3.3,7.6,3.8,14.2,5.2,14.7
		c3.8,1.4,4.3-1,8.6-0.5c6.3,0.7,9.5,2.5,14.2,2.1c4.6-0.3,9.5-2.6,15.6-0.7c3.4,1.1,7.6,2.8,7.6,2.8l12.8-23.2l2.8-32.2l-4.7-33.2
		L95,277.9L74.2,299.7z"/>
	<path class="st1" d="M74.2,299.7c0,0-8.5,19.9-8.5,30.8c0,10.9,8.1,16.6,11.4,24.2c3.3,7.6,3.8,14.2,5.2,14.7
		c3.8,1.4,4.3-1,8.6-0.5c6.3,0.7,9.5,2.5,14.2,2.1c4.6-0.3,9.5-2.6,15.6-0.7c3.4,1.1,7.6,2.8,7.6,2.8l12.8-23.2l2.8-32.2l-4.7-33.2
		L95,277.9L74.2,299.7z"/>
	<path class="st0" d="M133.8,280.8c0,0,6.8-7.7-42.2-37.9c-28.4-17.5-56.4-19-63-16.6c-2.8,1-7,3.1-8.1,6.2c-0.9,2.6,3.1,2,4.9,10.7
		c1.8,8.8-1.1,14.9-1.1,14.9s13.7,6.2,18.5,17.5c4.7,11.4,4.7,25.1,4.7,26.5c0,1.4,2.4,4.3,5.2,6.2c2.8,1.9,5.7,3.8,5.7,3.8
		s5.2,0.5,9.5,0s35.1-10.4,50.2-18.5C133.4,285.5,133.8,280.8,133.8,280.8"/>
</g>
<g>
	<path class="st1" d="M133.8,280.8c0,0,6.8-7.7-42.2-37.9c-28.4-17.5-56.4-19-63-16.6c-2.8,1-7,3.1-8.1,6.2c-0.9,2.6,3.1,2,4.9,10.7
		c1.8,8.8-1.1,14.9-1.1,14.9s13.7,6.2,18.5,17.5c4.7,11.4,4.7,25.1,4.7,26.5c0,1.4,2.4,4.3,5.2,6.2c2.8,1.9,5.7,3.8,5.7,3.8
		s5.2,0.5,9.5,0s35.1-10.4,50.2-18.5C133.4,285.5,133.8,280.8,133.8,280.8z"/>
</g>
<g>
	<path class="st0" d="M204.8,299.7c0,0,8.5,19.9,8.5,30.8c0,10.9-8.1,16.6-11.4,24.2c-3.3,7.6-3.8,14.2-5.2,14.7
		c-3.8,1.4-4.3-1-8.6-0.5c-6.3,0.7-9.5,2.5-14.2,2.1c-4.6-0.3-9.5-2.6-15.6-0.7c-3.4,1.1-7.6,2.8-7.6,2.8L138,349.9l-2.8-32.2
		l4.7-33.2l44.1-6.6L204.8,299.7z"/>
	<path class="st1" d="M204.8,299.7c0,0,8.5,19.9,8.5,30.8c0,10.9-8.1,16.6-11.4,24.2c-3.3,7.6-3.8,14.2-5.2,14.7
		c-3.8,1.4-4.3-1-8.6-0.5c-6.3,0.7-9.5,2.5-14.2,2.1c-4.6-0.3-9.5-2.6-15.6-0.7c-3.4,1.1-7.6,2.8-7.6,2.8L138,349.9l-2.8-32.2
		l4.7-33.2l44.1-6.6L204.8,299.7z"/>
	<path class="st0" d="M145.1,280.8c0,0-6.8-7.7,42.2-37.9c28.4-17.5,56.4-19,63-16.6c2.8,1,7,3.1,8.1,6.2c0.9,2.6-3.1,2-4.9,10.7
		c-1.8,8.8,1.1,14.9,1.1,14.9s-13.7,6.2-18.5,17.5c-4.7,11.4-4.7,25.1-4.7,26.5c0,1.4-2.4,4.3-5.2,6.2c-2.8,1.9-5.7,3.8-5.7,3.8
		s-5.2,0.5-9.5,0c-4.3-0.5-35.1-10.4-50.2-18.5C145.5,285.5,145.1,280.8,145.1,280.8"/>
</g>
<g>
	<path class="st1" d="M145.1,280.8c0,0-6.8-7.7,42.2-37.9c28.4-17.5,56.4-19,63-16.6c2.8,1,7,3.1,8.1,6.2c0.9,2.6-3.1,2-4.9,10.7
		c-1.8,8.8,1.1,14.9,1.1,14.9s-13.7,6.2-18.5,17.5c-4.7,11.4-4.7,25.1-4.7,26.5c0,1.4-2.4,4.3-5.2,6.2c-2.8,1.9-5.7,3.8-5.7,3.8
		s-5.2,0.5-9.5,0c-4.3-0.5-35.1-10.4-50.2-18.5C145.5,285.5,145.1,280.8,145.1,280.8z"/>
</g>
<g>
	<path d="M119.3,379.3c0,0,15.2-16.6,14.2-29.4c-0.9-12.8,0.5-14.2,0.5-14.2l12.8,0.9c0,0-1.4,17.5,1.9,25.6
		c3.3,8.1,8.5,13.3,8.5,13.3s-5.2,0-10.9-2.4c-5.7-2.4-10.4-3.3-12.8-1.4c-2.4,1.9-3.1,1.5-4.5,2.9c-1.4,1.4-3.7,2.3-3.7,2.3
		C121.9,378.8,119.3,379.3,119.3,379.3"/>
	<path class="st2" d="M133.8,348.5c0,0-15.2-10.4-17.5-16.1c-2.4-5.7-2.4-12.3,0.9-15.2c3.3-2.8,2.4-3.8,2.4-6.2
		c0-2.4,0.9-6.2-0.5-7.1c-1.4-1-3.3-4.3-2.4-7.1c0.9-2.8,0.5-4.7,3.3-6.6c2.8-1.9,2.8-1.4,2.8-4.7c0-3.3-0.9-7.6,1.4-9.5l2.4-1.9
		c0,0-1.4-4.7,1.9-6.6c3.3-1.9,3.3-3.3,3.8-5.7c0.5-2.4,1.9-7.1,5.7-6.2c3.8,0.9,5.2,0,5.2,0s1.4,0,2.4,3.8c1,3.8,2.8,6.6,4.3,8.5
		c1.4,1.9,2.8,3.8,3.3,5.7c0.5,1.9,0.9,8.5,2.4,9.9c1.4,1.4,3.8,3.3,4.3,6.2c0.5,2.8,1.4,4.7,2.4,6.6c0.9,1.9,0.9,5.2,0.9,6.6
		c0,1.4,0.5,7.1,0,9.5c-0.5,2.4,0,4.7-1.4,5.7c-1.4,0.9-2.4,2.4-0.5,5.7c1.9,3.3,3.8,8.1,2.4,10.4c-1.4,2.4-2.8,6.6-4.7,7.1
		c-1.9,0.5-3.8-0.5-5.2,1.4c-1.4,1.9-2.8,3.3-4.3,4.3s-3.3,1.4-3.3,1.4H133.8z"/>
	<path d="M275.1,303.1h12.9c4.4,0,7,2.3,7,6.4c0,4.2-2.6,6.6-7,6.6h-12.9V303.1z M267.8,322.1H287c10.8,0,15.4-5.1,15.4-11.6
		c0-5.7-2.7-9.6-7.8-10.8v-0.1c3.8-1.6,6-4.7,6-8.9c0-7-4.9-10.3-12.4-10.3h-20.3V322.1z M275.1,286.3h11.9c4,0,6.1,1.5,6.1,5.7
		c0,3.7-2.6,5.8-6.1,5.8h-11.9V286.3z"/>
	<path d="M334.6,322.1H328v-4.2h-0.1c-1.6,3-5.3,5-8.6,5c-7.9,0-11.3-4-11.3-11.9v-19.2h6.7v18.5c0,5.3,2.2,7.2,5.8,7.2
		c5.5,0,7.4-3.6,7.4-8.2v-17.5h6.7V322.1z"/>
	<path d="M338.5,291.9h5v-9.1h6.7v9.1h6v5h-6v16.1c0,2.7,0.2,4.1,3.2,4.1c0.9,0,1.9,0,2.8-0.2v5.1c-1.5,0.1-2.9,0.4-4.3,0.4
		c-7,0-8.2-2.7-8.4-7.7v-17.8h-5V291.9z"/>
	<path d="M358,291.9h5v-9.1h6.7v9.1h6v5h-6v16.1c0,2.7,0.2,4.1,3.2,4.1c0.9,0,1.9,0,2.8-0.2v5.1c-1.5,0.1-2.9,0.4-4.3,0.4
		c-7,0-8.2-2.7-8.4-7.7v-17.8h-5V291.9z"/>
	<path d="M385.7,304.3c0.2-4.5,3.3-8,7.9-8c4.5,0,7.4,3.8,7.6,8H385.7z M407.9,308.7c1.1-9.1-4.7-17.6-14.3-17.6
		c-9,0-14.6,7.4-14.6,15.9c0,9.3,5.3,15.9,14.8,15.9c6.6,0,12.2-3.7,13.7-10.3h-6.3c-1.2,3.3-3.5,5-7.4,5c-5.6,0-8.1-4.2-8.1-8.9
		H407.9z"/>
	<path d="M413,291.9h6.3v5.8h0.1c0.8-3.2,4.7-6.7,8.8-6.7c1.5,0,1.9,0.1,2.5,0.2v6.4c-0.9-0.1-1.9-0.3-2.9-0.3
		c-4.6,0-8.2,3.7-8.2,10.3v14.4H413V291.9z"/>
	<path d="M432.9,291.9h5v-2.5c0-7.7,4-9,8.4-9c2.1,0,3.6,0.1,4.7,0.4v5.2c-0.9-0.2-1.8-0.3-3.1-0.3c-1.8,0-3.3,0.6-3.3,3.2v3.1h5.7
		v5h-5.7v25.2h-6.7v-25.2h-5V291.9z"/>
	<rect x="454.4" y="280.4" width="6.7" height="41.7"/>
	<path d="M465,291.9h7.3l7.9,22.6h0.1l7.7-22.6h7l-11.7,31.8c-2.2,5.4-3.7,10.3-10.7,10.3c-1.6,0-3.1-0.1-4.6-0.4v-5.6
		c1,0.2,2.1,0.4,3.2,0.4c3.1,0,3.9-1.6,4.7-4.2l0.8-2.3L465,291.9z"/>
	<path d="M296,348.6c-1.2-4.8-4.3-8.3-10.4-8.3c-8.9,0-12.7,7.9-12.7,15.9c0,8,3.7,15.9,12.7,15.9c6.5,0,10.1-4.9,10.6-10.9h7.1
		c-0.6,10-7.7,16.9-17.8,16.9c-12.5,0-20-9.9-20-21.9c0-11.9,7.5-21.9,20-21.9c9.4,0.1,16.8,5.3,17.7,14.3H296z"/>
	<path d="M322.9,372.7c-6,0-8.6-5.4-8.6-10.7c0-5.2,2.6-10.6,8.6-10.6c6,0,8.6,5.4,8.6,10.6C331.5,367.2,328.9,372.7,322.9,372.7
		 M322.9,377.9c9.7,0,15.2-6.7,15.2-15.9c0-9.2-5.5-15.9-15.2-15.9c-9.7,0-15.2,6.7-15.2,15.9C307.7,371.2,313.2,377.9,322.9,377.9"
		/>
	<path d="M343.7,346.9h6.3v4.4l0.1,0.1c2-3.3,5.4-5.4,9.4-5.4c6.5,0,10.7,3.5,10.7,10.3v20.7h-6.7v-19c-0.1-4.7-2-6.8-5.9-6.8
		c-4.4,0-7.3,3.5-7.3,7.9v17.8h-6.7V346.9z"/>
	<path d="M382.3,367.4c0.4,3.9,3.3,5.3,6.8,5.3c2.5,0,6.9-0.5,6.7-4c-0.2-3.5-5-3.9-9.9-5c-4.9-1.1-9.7-2.8-9.7-8.9
		c0-6.6,7.1-8.6,12.6-8.6c6.2,0,11.8,2.6,12.6,9.3h-7c-0.6-3.2-3.2-4-6.1-4c-1.9,0-5.5,0.5-5.5,3.1c0,3.3,4.9,3.7,9.8,4.8
		c4.9,1.1,9.8,2.9,9.8,8.8c0,7.2-7.2,9.8-13.5,9.8c-7.6,0-13.3-3.4-13.4-10.5H382.3z"/>
	<path d="M412.8,359.3c0.2-4.5,3.3-8,7.9-8c4.5,0,7.4,3.8,7.6,8H412.8z M435,363.7c1.1-9.1-4.7-17.6-14.3-17.6
		c-9,0-14.6,7.4-14.6,15.9c0,9.3,5.3,15.9,14.8,15.9c6.6,0,12.2-3.7,13.7-10.3h-6.3c-1.2,3.3-3.5,5-7.4,5c-5.5,0-8.1-4.2-8.1-8.9
		H435z"/>
	<path d="M440.1,346.9h6.3v5.8h0.1c0.8-3.2,4.7-6.7,8.8-6.7c1.5,0,1.9,0.1,2.5,0.2v6.4c-0.9-0.1-1.9-0.3-2.9-0.3
		c-4.6,0-8.2,3.7-8.2,10.3v14.4h-6.7V346.9z"/>
	<polygon points="460,346.9 467.2,346.9 474.9,370.1 475,370.1 482.4,346.9 489.3,346.9 478.5,377.1 471,377.1 	"/>
	<path d="M511.9,366.9c0,4.2-4.6,5.7-7.5,5.7c-2.3,0-6.1-0.9-6.1-3.9c0-3.5,2.6-4.6,5.4-5c2.9-0.5,6.1-0.5,8.2-1.8V366.9z
		 M518.6,354.8c0-6.4-6.2-8.8-12.1-8.8c-6.7,0-13.3,2.3-13.7,10h6.7c0.3-3.3,2.9-4.8,6.7-4.8c2.7,0,6.3,0.6,6.3,4.1
		c0,3.9-4.3,3.4-9.1,4.3c-5.6,0.6-11.6,1.9-11.6,9.4c0,5.9,4.9,8.8,10.3,8.8c3.6,0,7.8-1.1,10.5-3.7c0.5,2.7,2.5,3.7,5.1,3.7
		c1.1,0,3.2-0.4,4.2-0.8v-4.6c-0.7,0.1-1.2,0.1-1.6,0.1c-1.2,0-1.6-0.6-1.6-2.3V354.8z"/>
	<path d="M522.8,346.9h5v-9.1h6.7v9.1h6v5h-6V368c0,2.7,0.2,4.1,3.2,4.1c0.9,0,1.9,0,2.8-0.2v5.1c-1.5,0.1-2.9,0.3-4.3,0.3
		c-7,0-8.2-2.7-8.4-7.7v-17.8h-5V346.9z"/>
	<path d="M545.4,346.9h6.7v30.2h-6.7V346.9z M545.4,335.4h6.7v6.3h-6.7V335.4z"/>
	<path d="M573.2,372.7c-6,0-8.6-5.4-8.6-10.7c0-5.2,2.6-10.6,8.6-10.6c6,0,8.6,5.4,8.6,10.6C581.8,367.2,579.1,372.7,573.2,372.7
		 M573.2,377.9c9.7,0,15.2-6.7,15.2-15.9c0-9.2-5.5-15.9-15.2-15.9c-9.7,0-15.2,6.7-15.2,15.9C557.9,371.2,563.5,377.9,573.2,377.9"
		/>
	<path d="M594,346.9h6.3v4.4l0.1,0.1c2-3.3,5.4-5.4,9.4-5.4c6.5,0,10.7,3.5,10.7,10.3v20.7h-6.7v-19c-0.1-4.7-2-6.8-5.9-6.8
		c-4.4,0-7.3,3.5-7.3,7.9v17.8H594V346.9z"/>
	<path d="M84.5,409c0,2.2,1.6,3.1,3.7,3.1c2.2,0,3.1-1.1,3.1-2.2c0-1.1-0.6-1.6-1.2-1.8c-1-0.4-2.3-0.6-4.3-1.2
		c-2.5-0.7-3.2-2.2-3.2-3.7c0-2.9,2.7-4.3,5.3-4.3c3,0,5.5,1.6,5.5,4.6h-2.5c-0.1-1.9-1.4-2.5-3.1-2.5c-1.2,0-2.6,0.4-2.6,1.9
		c0,1,0.7,1.6,1.7,1.9c0.2,0.1,3.4,0.9,4.2,1.1c1.9,0.6,2.8,2.2,2.8,3.7c0,3.2-2.9,4.5-5.7,4.5c-3.3,0-6-1.6-6-5.2H84.5z"/>
	<path d="M104.3,411.5c0,0.6,0.1,0.8,0.5,0.8c0.1,0,0.3,0,0.6,0v1.6c-0.3,0.1-1.1,0.3-1.5,0.3c-0.9,0-1.6-0.3-1.8-1.3
		c-0.9,0.9-2.4,1.3-3.6,1.3c-1.9,0-3.6-1-3.6-3.1c0-2.6,2.1-3,4-3.3c1.7-0.3,3.1-0.1,3.1-1.5c0-1.2-1.2-1.4-2.2-1.4
		c-1.3,0-2.2,0.5-2.3,1.7h-2.3c0.2-2.7,2.5-3.5,4.8-3.5c2,0,4.2,0.8,4.2,3V411.5z M102,408.6c-0.7,0.5-1.8,0.4-2.8,0.6
		c-1,0.2-1.9,0.5-1.9,1.7c0,1,1.3,1.3,2.1,1.3c1,0,2.6-0.5,2.6-2V408.6z"/>
	<polygon points="105.7,403.4 108.2,403.4 110.9,411.4 110.9,411.4 113.5,403.4 115.9,403.4 112.1,413.8 109.5,413.8 	"/>
	<path d="M117.3,399.4h2.3v2.2h-2.3V399.4z M117.3,403.4h2.3v10.5h-2.3V403.4z"/>
	<path d="M122.1,403.4h2.2v1.5l0,0c0.7-1.2,1.9-1.9,3.3-1.9c2.3,0,3.7,1.2,3.7,3.6v7.2h-2.3v-6.6c0-1.6-0.7-2.3-2-2.3
		c-1.5,0-2.5,1.2-2.5,2.8v6.2h-2.3V403.4z"/>
	<path d="M143.3,413.3c0,3.1-1.8,4.7-5.1,4.7c-2.1,0-4.5-0.8-4.7-3.3h2.3c0.3,1.3,1.3,1.5,2.5,1.5c1.9,0,2.7-1,2.7-2.7V412h0
		c-0.6,1.2-1.8,1.8-3.1,1.8c-3.3,0-4.7-2.5-4.7-5.5c0-2.8,1.8-5.2,4.7-5.2c1.3,0,2.5,0.5,3.1,1.7h0v-1.4h2.3V413.3z M141,408.4
		c0-1.8-0.8-3.5-2.8-3.5c-2,0-2.8,1.9-2.8,3.6c0,1.7,0.8,3.5,2.8,3.5C140.2,412,141,410.2,141,408.4"/>
	<path d="M151.2,399.4h2.3v5.3h0c0.6-1,1.9-1.6,3.1-1.6c3.3,0,4.9,2.5,4.9,5.6c0,2.8-1.4,5.5-4.5,5.5c-1.4,0-2.9-0.3-3.6-1.7h0v1.4
		h-2.2V399.4z M156.4,404.9c-1.9,0-2.9,1.5-2.9,3.7c0,2.1,1.1,3.7,2.9,3.7c2.1,0,2.9-1.9,2.9-3.7
		C159.3,406.7,158.3,404.9,156.4,404.9"/>
	<path d="M172.7,413.8h-2.3v-1.5h0c-0.6,1.1-1.8,1.7-3,1.7c-2.7,0-3.9-1.4-3.9-4.1v-6.6h2.3v6.4c0,1.8,0.7,2.5,2,2.5
		c1.9,0,2.6-1.2,2.6-2.9v-6.1h2.3V413.8z"/>
	<path d="M174,403.4h1.7v-3.1h2.3v3.1h2.1v1.7h-2.1v5.6c0,1,0.1,1.4,1.1,1.4c0.3,0,0.6,0,1-0.1v1.8c-0.5,0-1,0.1-1.5,0.1
		c-2.4,0-2.9-0.9-2.9-2.7v-6.2H174V403.4z"/>
	<path d="M180.7,403.4h1.7v-3.1h2.3v3.1h2.1v1.7h-2.1v5.6c0,1,0.1,1.4,1.1,1.4c0.3,0,0.6,0,1-0.1v1.8c-0.5,0-1,0.1-1.5,0.1
		c-2.4,0-2.9-0.9-2.9-2.7v-6.2h-1.7V403.4z"/>
	<path d="M190.3,409.2c0,1.6,0.9,3.1,2.8,3.1c1.3,0,2.1-0.6,2.5-1.7h2.2c-0.5,2.3-2.4,3.6-4.7,3.6c-3.3,0-5.1-2.3-5.1-5.5
		c0-3,1.9-5.5,5.1-5.5c3.3,0,5.3,3,4.9,6.1H190.3z M195.6,407.7c-0.1-1.5-1.1-2.8-2.6-2.8c-1.6,0-2.7,1.2-2.8,2.8H195.6z"/>
	<path d="M199.7,403.4h2.2v2h0c0.3-1.1,1.6-2.3,3.1-2.3c0.5,0,0.7,0,0.9,0.1v2.2c-0.3,0-0.7-0.1-1-0.1c-1.6,0-2.8,1.3-2.8,3.6v5
		h-2.3V403.4z"/>
	<path d="M206.6,403.4h1.7v-0.9c0-2.7,1.4-3.1,2.9-3.1c0.7,0,1.3,0,1.6,0.1v1.8c-0.3-0.1-0.6-0.1-1.1-0.1c-0.6,0-1.1,0.2-1.1,1.1
		v1.1h2v1.7h-2v8.7h-2.3v-8.7h-1.7V403.4z"/>
	<rect x="214" y="399.4" width="2.3" height="14.4"/>
	<path d="M218.8,399.4h2.3v2.2h-2.3V399.4z M218.8,403.4h2.3v10.5h-2.3V403.4z"/>
	<path d="M225.4,409.2c0,1.6,0.9,3.1,2.8,3.1c1.3,0,2.1-0.6,2.5-1.7h2.2c-0.5,2.3-2.4,3.6-4.7,3.6c-3.3,0-5.1-2.3-5.1-5.5
		c0-3,1.9-5.5,5.1-5.5c3.3,0,5.3,3,4.9,6.1H225.4z M230.8,407.7c-0.1-1.5-1.1-2.8-2.6-2.8c-1.6,0-2.7,1.2-2.8,2.8H230.8z"/>
	<path d="M236.5,410.5c0.1,1.3,1.1,1.8,2.4,1.8c0.9,0,2.4-0.2,2.3-1.4c-0.1-1.2-1.7-1.4-3.4-1.7c-1.7-0.4-3.4-1-3.4-3.1
		c0-2.3,2.5-3,4.4-3c2.1,0,4.1,0.9,4.4,3.2h-2.4c-0.2-1.1-1.1-1.4-2.1-1.4c-0.7,0-1.9,0.2-1.9,1.1c0,1.1,1.7,1.3,3.4,1.7
		c1.7,0.4,3.4,1,3.4,3.1c0,2.5-2.5,3.4-4.7,3.4c-2.6,0-4.6-1.2-4.6-3.6H236.5z"/>
	<path d="M245.5,411.1h2.8v2.7c0,1.7-1.1,2.9-2.7,3.2v-1.2c0.9-0.2,1.3-1.1,1.3-2h-1.4V411.1z"/>
	<path d="M256.4,403.4h2.2v1.5h0.1c0.7-1,1.6-1.7,3.2-1.7c1.3,0,2.5,0.5,2.9,1.7c0.8-1.1,1.8-1.7,3.3-1.7c2.2,0,3.5,1,3.5,3.5v7.2
		h-2.3v-6.1c0-1.7-0.1-2.8-1.9-2.8c-1.6,0-2.2,1-2.2,2.8v6.1h-2.3v-6.7c0-1.4-0.5-2.2-1.8-2.2c-1.2,0-2.3,1-2.3,2.7v6.2h-2.3V403.4z
		"/>
	<path d="M273.5,408.6c0-3.2,1.9-5.5,5.3-5.5s5.3,2.3,5.3,5.5c0,3.2-1.9,5.5-5.3,5.5S273.5,411.8,273.5,408.6 M281.8,408.6
		c0-1.8-0.9-3.7-3-3.7c-2.1,0-3,1.9-3,3.7c0,1.8,0.9,3.7,3,3.7C280.9,412.3,281.8,410.4,281.8,408.6"/>
	<path d="M284.9,403.4h1.7v-3.1h2.3v3.1h2.1v1.7H289v5.6c0,1,0.1,1.4,1.1,1.4c0.3,0,0.6,0,1-0.1v1.8c-0.5,0-1,0.1-1.5,0.1
		c-2.4,0-2.9-0.9-2.9-2.7v-6.2h-1.7V403.4z"/>
	<path d="M292.7,399.4h2.3v5.4h0c0.6-1,1.8-1.7,3.1-1.7c2.3,0,3.7,1.2,3.7,3.6v7.2h-2.3v-6.6c0-1.6-0.7-2.3-2-2.3
		c-1.5,0-2.5,1.2-2.5,2.8v6.2h-2.3V399.4z"/>
	<path d="M306,410.5c0.1,1.3,1.1,1.8,2.4,1.8c0.9,0,2.4-0.2,2.3-1.4c-0.1-1.2-1.7-1.4-3.4-1.7c-1.7-0.4-3.4-1-3.4-3.1
		c0-2.3,2.5-3,4.4-3c2.1,0,4.1,0.9,4.4,3.2h-2.4c-0.2-1.1-1.1-1.4-2.1-1.4c-0.7,0-1.9,0.2-1.9,1.1c0,1.1,1.7,1.3,3.4,1.7
		c1.7,0.4,3.4,1,3.4,3.1c0,2.5-2.5,3.4-4.7,3.4c-2.6,0-4.6-1.2-4.6-3.6H306z"/>
	<path d="M329,411.5c0,0.6,0.1,0.8,0.5,0.8c0.1,0,0.3,0,0.6,0v1.6c-0.3,0.1-1.1,0.3-1.5,0.3c-0.9,0-1.6-0.3-1.8-1.3
		c-0.9,0.9-2.4,1.3-3.6,1.3c-1.9,0-3.6-1-3.6-3.1c0-2.6,2.1-3,4-3.3c1.7-0.3,3.1-0.1,3.1-1.5c0-1.2-1.2-1.4-2.2-1.4
		c-1.3,0-2.2,0.5-2.3,1.7h-2.3c0.2-2.7,2.5-3.5,4.8-3.5c2,0,4.2,0.8,4.2,3V411.5z M326.7,408.6c-0.7,0.5-1.8,0.4-2.8,0.6
		c-1,0.2-1.9,0.5-1.9,1.7c0,1,1.3,1.3,2.1,1.3c1,0,2.6-0.5,2.6-2V408.6z"/>
	<path d="M331.5,403.4h2.2v1.5l0,0c0.7-1.2,1.9-1.9,3.3-1.9c2.3,0,3.7,1.2,3.7,3.6v7.2h-2.3v-6.6c0-1.6-0.7-2.3-2-2.3
		c-1.5,0-2.5,1.2-2.5,2.8v6.2h-2.3V403.4z"/>
	<path d="M352.9,413.8h-2.2v-1.4h0c-0.6,1.2-1.9,1.7-3.2,1.7c-3.3,0-4.9-2.4-4.9-5.6c0-3.8,2.3-5.4,4.5-5.4c1.3,0,2.8,0.5,3.5,1.6h0
		v-5.3h2.3V413.8z M347.7,412.3c2.1,0,2.9-1.9,2.9-3.7c0-2.3-1.1-3.7-2.9-3.7c-2.2,0-2.9,1.9-2.9,3.8
		C344.9,410.5,345.7,412.3,347.7,412.3"/>
	<path d="M360.5,408.6c0-3.2,1.9-5.5,5.3-5.5s5.3,2.3,5.3,5.5c0,3.2-1.9,5.5-5.3,5.5S360.5,411.8,360.5,408.6 M368.7,408.6
		c0-1.8-0.9-3.7-3-3.7c-2.1,0-3,1.9-3,3.7c0,1.8,0.9,3.7,3,3.7C367.8,412.3,368.7,410.4,368.7,408.6"/>
	<path d="M382.1,413.8h-2.3v-1.5h0c-0.6,1.1-1.8,1.7-3,1.7c-2.7,0-3.9-1.4-3.9-4.1v-6.6h2.3v6.4c0,1.8,0.7,2.5,2,2.5
		c1.9,0,2.6-1.2,2.6-2.9v-6.1h2.3V413.8z"/>
	<path d="M384.5,403.4h2.2v2h0c0.3-1.1,1.6-2.3,3.1-2.3c0.5,0,0.7,0,0.9,0.1v2.2c-0.3,0-0.7-0.1-1-0.1c-1.6,0-2.8,1.3-2.8,3.6v5
		h-2.3V403.4z"/>
	<path d="M399,409.2c0,1.6,0.9,3.1,2.8,3.1c1.3,0,2.1-0.6,2.6-1.7h2.2c-0.5,2.3-2.5,3.6-4.7,3.6c-3.3,0-5.1-2.3-5.1-5.5
		c0-3,1.9-5.5,5.1-5.5c3.3,0,5.3,3,4.9,6.1H399z M404.3,407.7c-0.1-1.5-1.1-2.8-2.6-2.8c-1.6,0-2.7,1.2-2.8,2.8H404.3z"/>
	<path d="M408.4,403.4h2.2v1.5l0,0c0.7-1.2,1.9-1.9,3.3-1.9c2.3,0,3.7,1.2,3.7,3.6v7.2h-2.3v-6.6c0-1.6-0.7-2.3-2-2.3
		c-1.5,0-2.5,1.2-2.5,2.8v6.2h-2.3V403.4z"/>
	<polygon points="418.9,403.4 421.4,403.4 424.1,411.4 424.1,411.4 426.7,403.4 429,403.4 425.3,413.8 422.7,413.8 	"/>
	<path d="M430.5,399.4h2.3v2.2h-2.3V399.4z M430.5,403.4h2.3v10.5h-2.3V403.4z"/>
	<path d="M435.2,403.4h2.2v2h0c0.3-1.1,1.6-2.3,3.1-2.3c0.5,0,0.7,0,0.9,0.1v2.2c-0.3,0-0.7-0.1-1-0.1c-1.6,0-2.8,1.3-2.8,3.6v5
		h-2.3V403.4z"/>
	<path d="M441.5,408.6c0-3.2,1.9-5.5,5.3-5.5c3.4,0,5.3,2.3,5.3,5.5c0,3.2-1.9,5.5-5.3,5.5C443.4,414.1,441.5,411.8,441.5,408.6
		 M449.7,408.6c0-1.8-0.9-3.7-3-3.7c-2.1,0-3,1.9-3,3.7c0,1.8,0.9,3.7,3,3.7C448.8,412.3,449.7,410.4,449.7,408.6"/>
	<path d="M453.9,403.4h2.2v1.5l0,0c0.7-1.2,1.9-1.9,3.3-1.9c2.3,0,3.7,1.2,3.7,3.6v7.2h-2.3v-6.6c0-1.6-0.7-2.3-2-2.3
		c-1.5,0-2.5,1.2-2.5,2.8v6.2h-2.3V403.4z"/>
	<path d="M465.5,403.4h2.2v1.5h0.1c0.7-1,1.6-1.7,3.2-1.7c1.3,0,2.5,0.5,2.9,1.7c0.8-1.1,1.8-1.7,3.3-1.7c2.2,0,3.5,1,3.5,3.5v7.2
		h-2.3v-6.1c0-1.7-0.1-2.8-1.9-2.8c-1.6,0-2.2,1-2.2,2.8v6.1h-2.3v-6.7c0-1.4-0.4-2.2-1.8-2.2c-1.2,0-2.3,1-2.3,2.7v6.2h-2.3V403.4z
		"/>
	<path d="M484.8,409.2c0,1.6,0.9,3.1,2.8,3.1c1.3,0,2.1-0.6,2.6-1.7h2.2c-0.5,2.3-2.4,3.6-4.7,3.6c-3.3,0-5.1-2.3-5.1-5.5
		c0-3,1.9-5.5,5.1-5.5c3.3,0,5.3,3,4.9,6.1H484.8z M490.2,407.7c-0.1-1.5-1.1-2.8-2.6-2.8c-1.6,0-2.7,1.2-2.8,2.8H490.2z"/>
	<path d="M494.3,403.4h2.2v1.5l0,0c0.7-1.2,1.9-1.9,3.3-1.9c2.3,0,3.7,1.2,3.7,3.6v7.2h-2.3v-6.6c0-1.6-0.7-2.3-2-2.3
		c-1.5,0-2.5,1.2-2.5,2.8v6.2h-2.3V403.4z"/>
	<path d="M504.8,403.4h1.7v-3.1h2.3v3.1h2.1v1.7h-2.1v5.6c0,1,0.1,1.4,1.1,1.4c0.3,0,0.6,0,1-0.1v1.8c-0.5,0-1,0.1-1.5,0.1
		c-2.4,0-2.9-0.9-2.9-2.7v-6.2h-1.7V403.4z"/>
</g>
</svg>
