<svg xmlns="http://www.w3.org/2000/svg" xmlns:xlink="http://www.w3.org/1999/xlink" width="1228.8" height="1228.8" viewBox="0 0 1228.8 1228.8">
  <defs>
    <linearGradient id="linearGradient-2" x1="194.56" x2="1085.44" y1="757.76" y2="163.84" gradientUnits="userSpaceOnUse">
      <stop offset="0" stop-color="rgb(251,255,229)"/>
      <stop offset="1" stop-color="rgb(255,255,255)"/>
    </linearGradient>
    <path id="path-4" fill-rule="evenodd" d="M0 0v1228.80004883h1228.80004883V0H0z"/>
    <mask id="mask-5" maskContentUnits="userSpaceOnUse" maskUnits="userSpaceOnUse">
      <rect width="1228.8" height="1228.8" x="0" y="0" fill="black"/>
      <use fill="white" xlink:href="#path-4"/>
    </mask>
    <path id="path-8" fill-rule="evenodd" d="M0 0v1228.80004883h1228.80004883V0H0z"/>
    <mask id="mask-9" maskContentUnits="userSpaceOnUse" maskUnits="userSpaceOnUse">
      <rect width="1228.8" height="1228.8" x="0" y="0" fill="black"/>
      <use fill="white" xlink:href="#path-8"/>
    </mask>
    <rect id="rect-10" width="1228.8" height="1228.8" x="0" y="0"/>
    <mask id="mask-11" maskContentUnits="userSpaceOnUse" maskUnits="userSpaceOnUse">
      <rect width="1228.8" height="1228.8" x="0" y="0" fill="black"/>
      <use fill="white" xlink:href="#rect-10"/>
    </mask>
    <filter id="filter-13" width="200%" height="200%" x="-50%" y="-50%" color-interpolation-filters="sRGB" filterUnits="userSpaceOnUse">
      <feOffset dx="0" dy="0" in="SourceAlpha" result="shadow-1-feOffset-shadow"/>
      <feGaussianBlur in="shadow-1-feOffset-shadow" result="shadow-1-feGaussianBlur-shadow" stdDeviation="18.675"/>
      <feColorMatrix in="shadow-1-feGaussianBlur-shadow" result="shadow-1-feColorMatrix-shadow" type="matrix" values="0 0 0 0 0.25882352941176473  0 0 0 0 0.611764705882353  0 0 0 0 0.34901960784313724  0 0 0 1 0"/>
    </filter>
    <path id="path-15" fill-rule="evenodd" d="M0 0v1228.80004883h1228.80004883V0H0z"/>
    <mask id="mask-16" maskContentUnits="userSpaceOnUse" maskUnits="userSpaceOnUse">
      <rect width="1228.8" height="1228.8" x="0" y="0" fill="black"/>
      <use fill="white" xlink:href="#path-15"/>
    </mask>
    <rect id="rect-17" width="1228.8" height="1228.8" x="0" y="0"/>
    <mask id="mask-18" maskContentUnits="userSpaceOnUse" maskUnits="userSpaceOnUse">
      <rect width="1228.8" height="1228.8" x="0" y="0" fill="black"/>
      <use fill="white" xlink:href="#rect-17"/>
    </mask>
    <filter id="filter-20" width="200%" height="200%" x="-50%" y="-50%" color-interpolation-filters="sRGB" filterUnits="userSpaceOnUse">
      <feOffset dx="0" dy="0" in="SourceAlpha" result="shadow-1-feOffset-shadow"/>
      <feGaussianBlur in="shadow-1-feOffset-shadow" result="shadow-1-feGaussianBlur-shadow" stdDeviation="9.036"/>
      <feColorMatrix in="shadow-1-feGaussianBlur-shadow" result="shadow-1-feColorMatrix-shadow" type="matrix" values="0 0 0 0 0.25882352941176473  0 0 0 0 0.611764705882353  0 0 0 0 0.34901960784313724  0 0 0 1 0"/>
    </filter>
    <path id="path-23" fill-rule="evenodd" d="M0 0v1228.80004883h1228.80004883V0H0z"/>
    <mask id="mask-24" maskContentUnits="userSpaceOnUse" maskUnits="userSpaceOnUse">
      <rect width="1228.8" height="1228.8" x="0" y="0" fill="black"/>
      <use fill="white" xlink:href="#path-23"/>
    </mask>
    <path id="path-27" fill-rule="evenodd" d="M0 0v1228.80004883h1228.80004883V0H0z"/>
    <mask id="mask-28" maskContentUnits="userSpaceOnUse" maskUnits="userSpaceOnUse">
      <rect width="1228.8" height="1228.8" x="0" y="0" fill="black"/>
      <use fill="white" xlink:href="#path-27"/>
    </mask>
    <rect id="rect-29" width="1228.8" height="1228.8" x="0" y="0"/>
    <mask id="mask-30" maskContentUnits="userSpaceOnUse" maskUnits="userSpaceOnUse">
      <rect width="1228.8" height="1228.8" x="0" y="0" fill="black"/>
      <use fill="white" xlink:href="#rect-29"/>
    </mask>
    <filter id="filter-32" width="200%" height="200%" x="-50%" y="-50%" color-interpolation-filters="sRGB" filterUnits="userSpaceOnUse">
      <feOffset dx="0" dy="0" in="SourceAlpha" result="shadow-1-feOffset-shadow"/>
      <feGaussianBlur in="shadow-1-feOffset-shadow" result="shadow-1-feGaussianBlur-shadow" stdDeviation="18.675"/>
      <feColorMatrix in="shadow-1-feGaussianBlur-shadow" result="shadow-1-feColorMatrix-shadow" type="matrix" values="0 0 0 0 0.25882352941176473  0 0 0 0 0.611764705882353  0 0 0 0 0.34901960784313724  0 0 0 1 0"/>
    </filter>
    <path id="path-34" fill-rule="evenodd" d="M0 0v1228.80004883h1228.80004883V0H0z"/>
    <mask id="mask-35" maskContentUnits="userSpaceOnUse" maskUnits="userSpaceOnUse">
      <rect width="1228.8" height="1228.8" x="0" y="0" fill="black"/>
      <use fill="white" xlink:href="#path-34"/>
    </mask>
    <rect id="rect-36" width="1228.8" height="1228.8" x="0" y="0"/>
    <mask id="mask-37" maskContentUnits="userSpaceOnUse" maskUnits="userSpaceOnUse">
      <rect width="1228.8" height="1228.8" x="0" y="0" fill="black"/>
      <use fill="white" xlink:href="#rect-36"/>
    </mask>
    <filter id="filter-39" width="200%" height="200%" x="-50%" y="-50%" color-interpolation-filters="sRGB" filterUnits="userSpaceOnUse">
      <feOffset dx="0" dy="0" in="SourceAlpha" result="shadow-1-feOffset-shadow"/>
      <feGaussianBlur in="shadow-1-feOffset-shadow" result="shadow-1-feGaussianBlur-shadow" stdDeviation="9.036"/>
      <feColorMatrix in="shadow-1-feGaussianBlur-shadow" result="shadow-1-feColorMatrix-shadow" type="matrix" values="0 0 0 0 0.25882352941176473  0 0 0 0 0.611764705882353  0 0 0 0 0.34901960784313724  0 0 0 1 0"/>
    </filter>
    <path id="path-42" fill-rule="evenodd" d="M0 0v1228.80004883h1228.80004883V0H0z"/>
    <mask id="mask-43" maskContentUnits="userSpaceOnUse" maskUnits="userSpaceOnUse">
      <rect width="1228.8" height="1228.8" x="0" y="0" fill="black"/>
      <use fill="white" xlink:href="#path-42"/>
    </mask>
    <path id="path-46" fill-rule="evenodd" d="M0 0v1228.80004883h1228.80004883V0H0z"/>
    <mask id="mask-47" maskContentUnits="userSpaceOnUse" maskUnits="userSpaceOnUse">
      <rect width="1228.8" height="1228.8" x="0" y="0" fill="black"/>
      <use fill="white" xlink:href="#path-46"/>
    </mask>
    <rect id="rect-48" width="1228.8" height="1228.8" x="0" y="0"/>
    <mask id="mask-49" maskContentUnits="userSpaceOnUse" maskUnits="userSpaceOnUse">
      <rect width="1228.8" height="1228.8" x="0" y="0" fill="black"/>
      <use fill="white" xlink:href="#rect-48"/>
    </mask>
    <filter id="filter-51" width="200%" height="200%" x="-50%" y="-50%" color-interpolation-filters="sRGB" filterUnits="userSpaceOnUse">
      <feOffset dx="0" dy="0" in="SourceAlpha" result="shadow-1-feOffset-shadow"/>
      <feGaussianBlur in="shadow-1-feOffset-shadow" result="shadow-1-feGaussianBlur-shadow" stdDeviation="18.675"/>
      <feColorMatrix in="shadow-1-feGaussianBlur-shadow" result="shadow-1-feColorMatrix-shadow" type="matrix" values="0 0 0 0 0.25882352941176473  0 0 0 0 0.611764705882353  0 0 0 0 0.34901960784313724  0 0 0 1 0"/>
    </filter>
    <path id="path-53" fill-rule="evenodd" d="M0 0v1228.80004883h1228.80004883V0H0z"/>
    <mask id="mask-54" maskContentUnits="userSpaceOnUse" maskUnits="userSpaceOnUse">
      <rect width="1228.8" height="1228.8" x="0" y="0" fill="black"/>
      <use fill="white" xlink:href="#path-53"/>
    </mask>
    <rect id="rect-55" width="1228.8" height="1228.8" x="0" y="0"/>
    <mask id="mask-56" maskContentUnits="userSpaceOnUse" maskUnits="userSpaceOnUse">
      <rect width="1228.8" height="1228.8" x="0" y="0" fill="black"/>
      <use fill="white" xlink:href="#rect-55"/>
    </mask>
    <filter id="filter-58" width="200%" height="200%" x="-50%" y="-50%" color-interpolation-filters="sRGB" filterUnits="userSpaceOnUse">
      <feOffset dx="0" dy="0" in="SourceAlpha" result="shadow-1-feOffset-shadow"/>
      <feGaussianBlur in="shadow-1-feOffset-shadow" result="shadow-1-feGaussianBlur-shadow" stdDeviation="9.036"/>
      <feColorMatrix in="shadow-1-feGaussianBlur-shadow" result="shadow-1-feColorMatrix-shadow" type="matrix" values="0 0 0 0 0.25882352941176473  0 0 0 0 0.611764705882353  0 0 0 0 0.34901960784313724  0 0 0 1 0"/>
    </filter>
    <path id="path-61" fill-rule="evenodd" d="M0 0v1228.80004883h1228.80004883V0H0z"/>
    <mask id="mask-62" maskContentUnits="userSpaceOnUse" maskUnits="userSpaceOnUse">
      <rect width="1228.8" height="1228.8" x="0" y="0" fill="black"/>
      <use fill="white" xlink:href="#path-61"/>
    </mask>
    <path id="path-65" fill-rule="evenodd" d="M0 0v1228.80004883h1228.80004883V0H0z"/>
    <mask id="mask-66" maskContentUnits="userSpaceOnUse" maskUnits="userSpaceOnUse">
      <rect width="1228.8" height="1228.8" x="0" y="0" fill="black"/>
      <use fill="white" xlink:href="#path-65"/>
    </mask>
    <rect id="rect-67" width="1228.8" height="1228.8" x="0" y="0"/>
    <mask id="mask-68" maskContentUnits="userSpaceOnUse" maskUnits="userSpaceOnUse">
      <rect width="1228.8" height="1228.8" x="0" y="0" fill="black"/>
      <use fill="white" xlink:href="#rect-67"/>
    </mask>
    <filter id="filter-70" width="200%" height="200%" x="-50%" y="-50%" color-interpolation-filters="sRGB" filterUnits="userSpaceOnUse">
      <feOffset dx="0" dy="0" in="SourceAlpha" result="shadow-1-feOffset-shadow"/>
      <feGaussianBlur in="shadow-1-feOffset-shadow" result="shadow-1-feGaussianBlur-shadow" stdDeviation="18.675"/>
      <feColorMatrix in="shadow-1-feGaussianBlur-shadow" result="shadow-1-feColorMatrix-shadow" type="matrix" values="0 0 0 0 0.25882352941176473  0 0 0 0 0.611764705882353  0 0 0 0 0.34901960784313724  0 0 0 1 0"/>
    </filter>
    <path id="path-72" fill-rule="evenodd" d="M0 0v1228.80004883h1228.80004883V0H0z"/>
    <mask id="mask-73" maskContentUnits="userSpaceOnUse" maskUnits="userSpaceOnUse">
      <rect width="1228.8" height="1228.8" x="0" y="0" fill="black"/>
      <use fill="white" xlink:href="#path-72"/>
    </mask>
    <rect id="rect-74" width="1228.8" height="1228.8" x="0" y="0"/>
    <mask id="mask-75" maskContentUnits="userSpaceOnUse" maskUnits="userSpaceOnUse">
      <rect width="1228.8" height="1228.8" x="0" y="0" fill="black"/>
      <use fill="white" xlink:href="#rect-74"/>
    </mask>
    <filter id="filter-77" width="200%" height="200%" x="-50%" y="-50%" color-interpolation-filters="sRGB" filterUnits="userSpaceOnUse">
      <feOffset dx="0" dy="0" in="SourceAlpha" result="shadow-1-feOffset-shadow"/>
      <feGaussianBlur in="shadow-1-feOffset-shadow" result="shadow-1-feGaussianBlur-shadow" stdDeviation="9.036"/>
      <feColorMatrix in="shadow-1-feGaussianBlur-shadow" result="shadow-1-feColorMatrix-shadow" type="matrix" values="0 0 0 0 0.25882352941176473  0 0 0 0 0.611764705882353  0 0 0 0 0.34901960784313724  0 0 0 1 0"/>
    </filter>
    <path id="path-84" fill-rule="evenodd" d="M594.25523724 568.6777364s22.4397163-25.88468468-139.25823946-127.406435c-93.7188152-58.82882884-186.11764706-63.87129987-207.89737172-55.80334621-9.2398832 3.36164736-23.09970797 10.42110682-26.72966208 20.84221364-2.96996245 8.74028314 10.22987067 6.72329472 16.16979558 35.96962677 5.9399249 29.58249678-3.6299541 50.08854569-3.6299541 50.08854569s45.20942844 20.84221364 61.0492282 58.82882883c15.50980392 38.32277992 15.50980392 84.37734877 15.50980392 89.08365508 0 4.7063063 7.91989987 14.45508366 17.15978306 20.84221364 9.23988318 6.38712999 18.8097622 12.77425998 18.8097622 12.77425998s17.15978306 1.68082368 31.34960367 0c14.1898206-1.68082368 115.82853567-34.96113256 165.65790572-62.1904762 50.4893617-27.22934362 51.809345-43.02908622 51.809345-43.02908622z"/>
  </defs>
  <g>
    <rect width="1024" height="1024" x="102.4" y="102.4" fill="url(#linearGradient-2)" rx="0" ry="0"/>
    <g>
      <g>
        <g>
          <rect width="1228.8" height="1228.8" x="0" y="0" fill="none" rx="0" ry="0"/>
          <g>
            <use fill="none" xlink:href="#path-4"/>
            <g mask="url(#mask-5)">
              <rect width="1228.8" height="1228.8" x="0" y="0" fill="none" rx="0" ry="0"/>
              <g>
                <rect width="1228.8" height="1228.8" x="0" y="0" fill="none" rx="0" ry="0"/>
                <g>
                  <use fill="none" xlink:href="#path-8"/>
                  <g mask="url(#mask-9)">
                    <use fill="none" xlink:href="#rect-10"/>
                    <g mask="url(#mask-11)">
                      <path fill="black" fill-rule="evenodd" d="M828.0770979 632.683914s28.0496454 66.8967825 28.0496454 103.53873875c0 36.64195624-26.7296621 55.8033462-37.61952441 81.35186615-10.88986233 25.54851995-12.53984147 47.73539254-17.15978307 49.41621622-12.53984147 4.7063063-14.1898206-3.36164736-28.37964122-1.68082368-20.78973717 2.35315315-31.34960367 8.4041184-46.8594076 7.05945946-15.1798081-1.0084942-31.34960366-8.74028314-51.47934917-2.35315315-11.21985816 3.6978121-25.07968294 9.4126126-25.07968294 9.4126126l-41.90947017-77.99021878-9.2398832-108.24504505 15.50980393-111.6066924 145.5281602-22.1868726 68.63913225 73.28391249z" filter="url(#filter-13)"/>
                    </g>
                  </g>
                </g>
              </g>
              <g>
                <rect width="1228.8" height="1228.8" x="0" y="0" fill="none" rx="0" ry="0"/>
                <g>
                  <use fill="none" xlink:href="#path-15"/>
                  <g mask="url(#mask-16)">
                    <use fill="none" xlink:href="#rect-17"/>
                    <g mask="url(#mask-18)">
                      <path fill="black" fill-rule="evenodd" d="M828.0770979 634.683914s28.0496454 66.8967825 28.0496454 103.53873875c0 36.64195624-26.7296621 55.8033462-37.61952441 81.35186615-10.88986233 25.54851995-12.53984147 47.73539254-17.15978307 49.41621622-12.53984147 4.7063063-14.1898206-3.36164736-28.37964122-1.68082368-20.78973717 2.35315315-31.34960367 8.4041184-46.8594076 7.05945946-15.1798081-1.0084942-31.34960366-8.74028314-51.47934917-2.35315315-11.21985816 3.6978121-25.07968294 9.4126126-25.07968294 9.4126126l-41.90947017-77.99021878-9.2398832-108.24504505 15.50980393-111.6066924 145.5281602-22.1868726 68.63913225 73.28391249z" filter="url(#filter-20)"/>
                    </g>
                  </g>
                </g>
              </g>
            </g>
          </g>
        </g>
        <path fill="rgb(255,255,255)" fill-rule="evenodd" d="M828.0770979 632.683914s28.0496454 66.8967825 28.0496454 103.53873875c0 36.64195624-26.7296621 55.8033462-37.61952441 81.35186615-10.88986233 25.54851995-12.53984147 47.73539254-17.15978307 49.41621622-12.53984147 4.7063063-14.1898206-3.36164736-28.37964122-1.68082368-20.78973717 2.35315315-31.34960367 8.4041184-46.8594076 7.05945946-15.1798081-1.0084942-31.34960366-8.74028314-51.47934917-2.35315315-11.21985816 3.6978121-25.07968294 9.4126126-25.07968294 9.4126126l-41.90947017-77.99021878-9.2398832-108.24504505 15.50980393-111.6066924 145.5281602-22.1868726 68.63913225 73.28391249z"/>
      </g>
      <g>
        <g>
          <rect width="1228.8" height="1228.8" x="0" y="0" fill="none" rx="0" ry="0"/>
          <g>
            <use fill="none" xlink:href="#path-23"/>
            <g mask="url(#mask-24)">
              <rect width="1228.8" height="1228.8" x="0" y="0" fill="none" rx="0" ry="0"/>
              <g>
                <rect width="1228.8" height="1228.8" x="0" y="0" fill="none" rx="0" ry="0"/>
                <g>
                  <use fill="none" xlink:href="#path-27"/>
                  <g mask="url(#mask-28)">
                    <use fill="none" xlink:href="#rect-29"/>
                    <g mask="url(#mask-30)">
                      <path fill="black" fill-rule="evenodd" d="M630.83971784 566.6777364s-22.43971631-25.88468468 139.25823947-127.406435c93.71881518-58.82882884 186.11764706-63.87129987 207.8973717-55.80334621 9.2398832 3.36164736 23.09970798 10.42110682 26.72966209 20.84221364 2.96996245 8.74028314-10.22987067 6.72329472-16.16979558 35.96962677-5.9399249 29.58249678 3.6299541 50.08854569 3.6299541 50.08854569s-45.20942844 20.84221364-61.0492282 58.82882883c-15.50980391 38.32277992-15.50980391 84.37734877-15.50980391 89.08365508 0 4.7063063-7.91989988 14.45508366-17.15978306 20.84221364-9.2398832 6.38712999-18.8097622 12.77425998-18.8097622 12.77425998s-17.15978307 1.68082368-31.34960368 0c-14.1898206-1.68082368-115.82853567-34.96113256-165.65790571-62.1904762-50.4893617-27.22934362-51.80934502-43.02908622-51.80934502-43.02908622" filter="url(#filter-32)"/>
                    </g>
                  </g>
                </g>
              </g>
              <g>
                <rect width="1228.8" height="1228.8" x="0" y="0" fill="none" rx="0" ry="0"/>
                <g>
                  <use fill="none" xlink:href="#path-34"/>
                  <g mask="url(#mask-35)">
                    <use fill="none" xlink:href="#rect-36"/>
                    <g mask="url(#mask-37)">
                      <path fill="black" fill-rule="evenodd" d="M630.83971784 568.6777364s-22.43971631-25.88468468 139.25823947-127.406435c93.71881518-58.82882884 186.11764706-63.87129987 207.8973717-55.80334621 9.2398832 3.36164736 23.09970798 10.42110682 26.72966209 20.84221364 2.96996245 8.74028314-10.22987067 6.72329472-16.16979558 35.96962677-5.9399249 29.58249678 3.6299541 50.08854569 3.6299541 50.08854569s-45.20942844 20.84221364-61.0492282 58.82882883c-15.50980391 38.32277992-15.50980391 84.37734877-15.50980391 89.08365508 0 4.7063063-7.91989988 14.45508366-17.15978306 20.84221364-9.2398832 6.38712999-18.8097622 12.77425998-18.8097622 12.77425998s-17.15978307 1.68082368-31.34960368 0c-14.1898206-1.68082368-115.82853567-34.96113256-165.65790571-62.1904762-50.4893617-27.22934362-51.80934502-43.02908622-51.80934502-43.02908622" filter="url(#filter-39)"/>
                    </g>
                  </g>
                </g>
              </g>
            </g>
          </g>
        </g>
        <path fill="rgb(255,255,255)" fill-rule="evenodd" d="M630.83971784 566.6777364s-22.43971631-25.88468468 139.25823947-127.406435c93.71881518-58.82882884 186.11764706-63.87129987 207.8973717-55.80334621 9.2398832 3.36164736 23.09970798 10.42110682 26.72966209 20.84221364 2.96996245 8.74028314-10.22987067 6.72329472-16.16979558 35.96962677-5.9399249 29.58249678 3.6299541 50.08854569 3.6299541 50.08854569s-45.20942844 20.84221364-61.0492282 58.82882883c-15.50980391 38.32277992-15.50980391 84.37734877-15.50980391 89.08365508 0 4.7063063-7.91989988 14.45508366-17.15978306 20.84221364-9.2398832 6.38712999-18.8097622 12.77425998-18.8097622 12.77425998s-17.15978307 1.68082368-31.34960368 0c-14.1898206-1.68082368-115.82853567-34.96113256-165.65790571-62.1904762-50.4893617-27.22934362-51.80934502-43.02908622-51.80934502-43.02908622"/>
      </g>
      <g>
        <g>
          <rect width="1228.8" height="1228.8" x="0" y="0" fill="none" rx="0" ry="0"/>
          <g>
            <use fill="none" xlink:href="#path-42"/>
            <g mask="url(#mask-43)">
              <rect width="1228.8" height="1228.8" x="0" y="0" fill="none" rx="0" ry="0"/>
              <g>
                <rect width="1228.8" height="1228.8" x="0" y="0" fill="none" rx="0" ry="0"/>
                <g>
                  <use fill="none" xlink:href="#path-46"/>
                  <g mask="url(#mask-47)">
                    <use fill="none" xlink:href="#rect-48"/>
                    <g mask="url(#mask-49)">
                      <path fill="black" fill-rule="evenodd" d="M395.44964692 631.683914s-28.0496454 66.8967825-28.0496454 103.53873875c0 36.64195624 26.72966209 55.8033462 37.6195244 81.35186615 10.88986234 25.54851995 12.53984148 47.73539254 17.15978308 49.41621622 12.53984147 4.7063063 14.1898206-3.36164736 28.37964122-1.68082368 20.78973717 2.35315315 31.34960367 8.4041184 46.85940759 7.05945946 15.1798081-1.0084942 31.34960367-8.74028314 51.47934919-2.35315315 11.21985815 3.6978121 25.07968293 9.4126126 25.07968293 9.4126126l42.239466-77.99021878 9.23988319-108.24504505-15.50980392-111.6066924-145.85815603-22.1868726-68.63913225 73.28391249z" filter="url(#filter-51)"/>
                    </g>
                  </g>
                </g>
              </g>
              <g>
                <rect width="1228.8" height="1228.8" x="0" y="0" fill="none" rx="0" ry="0"/>
                <g>
                  <use fill="none" xlink:href="#path-53"/>
                  <g mask="url(#mask-54)">
                    <use fill="none" xlink:href="#rect-55"/>
                    <g mask="url(#mask-56)">
                      <path fill="black" fill-rule="evenodd" d="M395.44964692 633.683914s-28.0496454 66.8967825-28.0496454 103.53873875c0 36.64195624 26.72966209 55.8033462 37.6195244 81.35186615 10.88986234 25.54851995 12.53984148 47.73539254 17.15978308 49.41621622 12.53984147 4.7063063 14.1898206-3.36164736 28.37964122-1.68082368 20.78973717 2.35315315 31.34960367 8.4041184 46.85940759 7.05945946 15.1798081-1.0084942 31.34960367-8.74028314 51.47934919-2.35315315 11.21985815 3.6978121 25.07968293 9.4126126 25.07968293 9.4126126l42.239466-77.99021878 9.23988319-108.24504505-15.50980392-111.6066924-145.85815603-22.1868726-68.63913225 73.28391249z" filter="url(#filter-58)"/>
                    </g>
                  </g>
                </g>
              </g>
            </g>
          </g>
        </g>
        <path fill="rgb(255,255,255)" fill-rule="evenodd" d="M395.44964692 631.683914s-28.0496454 66.8967825-28.0496454 103.53873875c0 36.64195624 26.72966209 55.8033462 37.6195244 81.35186615 10.88986234 25.54851995 12.53984148 47.73539254 17.15978308 49.41621622 12.53984147 4.7063063 14.1898206-3.36164736 28.37964122-1.68082368 20.78973717 2.35315315 31.34960367 8.4041184 46.85940759 7.05945946 15.1798081-1.0084942 31.34960367-8.74028314 51.47934919-2.35315315 11.21985815 3.6978121 25.07968293 9.4126126 25.07968293 9.4126126l42.239466-77.99021878 9.23988319-108.24504505-15.50980392-111.6066924-145.85815603-22.1868726-68.63913225 73.28391249z"/>
      </g>
      <g>
        <g>
          <rect width="1228.8" height="1228.8" x="0" y="0" fill="none" rx="0" ry="0"/>
          <g>
            <use fill="none" xlink:href="#path-61"/>
            <g mask="url(#mask-62)">
              <rect width="1228.8" height="1228.8" x="0" y="0" fill="none" rx="0" ry="0"/>
              <g>
                <rect width="1228.8" height="1228.8" x="0" y="0" fill="none" rx="0" ry="0"/>
                <g>
                  <use fill="none" xlink:href="#path-65"/>
                  <g mask="url(#mask-66)">
                    <use fill="none" xlink:href="#rect-67"/>
                    <g mask="url(#mask-68)">
                      <path fill="black" fill-rule="evenodd" d="M593.25523724 568.6777364s22.4397163-25.88468468-139.25823946-127.406435c-93.7188152-58.82882884-186.11764706-63.87129987-207.89737172-55.80334621-9.2398832 3.36164736-23.09970797 10.42110682-26.72966208 20.84221364-2.96996245 8.74028314 10.22987067 6.72329472 16.16979558 35.96962677 5.9399249 29.58249678-3.6299541 50.08854569-3.6299541 50.08854569s45.20942844 20.84221364 61.0492282 58.82882883c15.50980392 38.32277992 15.50980392 84.37734877 15.50980392 89.08365508 0 4.7063063 7.91989987 14.45508366 17.15978306 20.84221364 9.23988318 6.38712999 18.8097622 12.77425998 18.8097622 12.77425998s17.15978306 1.68082368 31.34960367 0c14.1898206-1.68082368 115.82853567-34.96113256 165.65790572-62.1904762 50.4893617-27.22934362 51.809345-43.02908622 51.809345-43.02908622z" filter="url(#filter-70)"/>
                    </g>
                  </g>
                </g>
              </g>
              <g>
                <rect width="1228.8" height="1228.8" x="0" y="0" fill="none" rx="0" ry="0"/>
                <g>
                  <use fill="none" xlink:href="#path-72"/>
                  <g mask="url(#mask-73)">
                    <use fill="none" xlink:href="#rect-74"/>
                    <g mask="url(#mask-75)">
                      <path fill="black" fill-rule="evenodd" d="M593.25523724 570.6777364s22.4397163-25.88468468-139.25823946-127.406435c-93.7188152-58.82882884-186.11764706-63.87129987-207.89737172-55.80334621-9.2398832 3.36164736-23.09970797 10.42110682-26.72966208 20.84221364-2.96996245 8.74028314 10.22987067 6.72329472 16.16979558 35.96962677 5.9399249 29.58249678-3.6299541 50.08854569-3.6299541 50.08854569s45.20942844 20.84221364 61.0492282 58.82882883c15.50980392 38.32277992 15.50980392 84.37734877 15.50980392 89.08365508 0 4.7063063 7.91989987 14.45508366 17.15978306 20.84221364 9.23988318 6.38712999 18.8097622 12.77425998 18.8097622 12.77425998s17.15978306 1.68082368 31.34960367 0c14.1898206-1.68082368 115.82853567-34.96113256 165.65790572-62.1904762 50.4893617-27.22934362 51.809345-43.02908622 51.809345-43.02908622z" filter="url(#filter-77)"/>
                    </g>
                  </g>
                </g>
              </g>
            </g>
          </g>
        </g>
        <path fill="rgb(255,255,255)" fill-rule="evenodd" d="M593.25523724 568.6777364s22.4397163-25.88468468-139.25823946-127.406435c-93.7188152-58.82882884-186.11764706-63.87129987-207.89737172-55.80334621-9.2398832 3.36164736-23.09970797 10.42110682-26.72966208 20.84221364-2.96996245 8.74028314 10.22987067 6.72329472 16.16979558 35.96962677 5.9399249 29.58249678-3.6299541 50.08854569-3.6299541 50.08854569s45.20942844 20.84221364 61.0492282 58.82882883c15.50980392 38.32277992 15.50980392 84.37734877 15.50980392 89.08365508 0 4.7063063 7.91989987 14.45508366 17.15978306 20.84221364 9.23988318 6.38712999 18.8097622 12.77425998 18.8097622 12.77425998s17.15978306 1.68082368 31.34960367 0c14.1898206-1.68082368 115.82853567-34.96113256 165.65790572-62.1904762 50.4893617-27.22934362 51.809345-43.02908622 51.809345-43.02908622z"/>
      </g>
    </g>
    <g>
      <g>
        <path fill="rgb(255,255,255)" fill-rule="evenodd" d="M397.57772368 632.21287154s-28.0496454 66.8967825-28.0496454 103.53873874 26.72966209 55.8033462 37.6195244 81.35186615c10.88986235 25.54851995 12.53984149 47.73539254 17.15978308 49.41621622 12.53984147 4.7063063 14.1898206-3.36164736 28.37964122-1.68082368 20.78973717 2.35315315 31.34960367 8.4041184 46.8594076 7.05945946 15.17980808-1.00849421 31.34960366-8.74028314 51.47934918-2.35315315 11.21985815 3.6978121 25.07968293 9.4126126 25.07968293 9.4126126l42.239466-77.99021878 9.2398832-108.24504505-15.50980393-111.6066924-145.85815603-22.1868726-68.63913225 73.2839125v-1e-8z"/>
        <path fill="none" stroke="rgb(0,0,0)" stroke-dasharray="0 0 0 0" stroke-linecap="butt" stroke-linejoin="miter" stroke-width="3.253" d="M397.57772368 632.21287154s-28.0496454 66.8967825-28.0496454 103.53873874 26.72966209 55.8033462 37.6195244 81.35186615c10.88986235 25.54851995 12.53984149 47.73539254 17.15978308 49.41621622 12.53984147 4.7063063 14.1898206-3.36164736 28.37964122-1.68082368 20.78973717 2.35315315 31.34960367 8.4041184 46.8594076 7.05945946 15.17980808-1.00849421 31.34960366-8.74028314 51.47934918-2.35315315 11.21985815 3.6978121 25.07968293 9.4126126 25.07968293 9.4126126l42.239466-77.99021878 9.2398832-108.24504505-15.50980393-111.6066924-145.85815603-22.1868726-68.63913225 73.2839125h0v-1e-8h0z"/>
        <path fill="rgb(255,255,255)" fill-rule="evenodd" d="M594.25523724 568.6777364s22.4397163-25.88468468-139.25823946-127.406435c-93.7188152-58.82882884-186.11764706-63.87129987-207.89737172-55.80334621-9.2398832 3.36164736-23.09970797 10.42110682-26.72966208 20.84221364-2.96996245 8.74028314 10.22987067 6.72329472 16.16979558 35.96962677 5.9399249 29.58249678-3.6299541 50.08854569-3.6299541 50.08854569s45.20942844 20.84221364 61.0492282 58.82882883c15.50980392 38.32277992 15.50980392 84.37734877 15.50980392 89.08365508 0 4.7063063 7.91989987 14.45508366 17.15978306 20.84221364 9.23988318 6.38712999 18.8097622 12.77425998 18.8097622 12.77425998s17.15978306 1.68082368 31.34960367 0c14.1898206-1.68082368 115.82853567-34.96113256 165.65790572-62.1904762 50.4893617-27.22934362 51.809345-43.02908622 51.809345-43.02908622"/>
      </g>
      <g>
        <path fill="rgb(255,255,255)" fill-rule="evenodd" d="M594.25523724 568.6777364s22.4397163-25.88468468-139.25823946-127.406435c-93.7188152-58.82882884-186.11764706-63.87129987-207.89737172-55.80334621-9.2398832 3.36164736-23.09970797 10.42110682-26.72966208 20.84221364-2.96996245 8.74028314 10.22987067 6.72329472 16.16979558 35.96962677 5.9399249 29.58249678-3.6299541 50.08854569-3.6299541 50.08854569s45.20942844 20.84221364 61.0492282 58.82882883c15.50980392 38.32277992 15.50980392 84.37734877 15.50980392 89.08365508 0 4.7063063 7.91989987 14.45508366 17.15978306 20.84221364 9.23988318 6.38712999 18.8097622 12.77425998 18.8097622 12.77425998s17.15978306 1.68082368 31.34960367 0c14.1898206-1.68082368 115.82853567-34.96113256 165.65790572-62.1904762 50.4893617-27.22934362 51.809345-43.02908622 51.809345-43.02908622z"/>
        <g>
          <path fill="none" d="M594.25523724 568.6777364s22.4397163-25.88468468-139.25823946-127.406435c-93.7188152-58.82882884-186.11764706-63.87129987-207.89737172-55.80334621-9.2398832 3.36164736-23.09970797 10.42110682-26.72966208 20.84221364-2.96996245 8.74028314 10.22987067 6.72329472 16.16979558 35.96962677 5.9399249 29.58249678-3.6299541 50.08854569-3.6299541 50.08854569s45.20942844 20.84221364 61.0492282 58.82882883c15.50980392 38.32277992 15.50980392 84.37734877 15.50980392 89.08365508 0 4.7063063 7.91989987 14.45508366 17.15978306 20.84221364 9.23988318 6.38712999 18.8097622 12.77425998 18.8097622 12.77425998s17.15978306 1.68082368 31.34960367 0c14.1898206-1.68082368 115.82853567-34.96113256 165.65790572-62.1904762 50.4893617-27.22934362 51.809345-43.02908622 51.809345-43.02908622z"/>
          <g>
            <use fill="rgb(0,0,0)" fill-opacity="0" xlink:href="#path-84"/>
            <use fill-opacity="0" stroke="rgb(0,0,0)" stroke-dasharray="0 0 0 0" stroke-linecap="butt" stroke-linejoin="miter" stroke-width="3.253" xlink:href="#path-84"/>
          </g>
        </g>
      </g>
      <g>
        <path fill="rgb(255,255,255)" fill-rule="evenodd" d="M828.5522752 632.21287154s28.0496454 66.8967825 28.0496454 103.53873874-26.72966208 55.8033462-37.61952441 81.35186615c-10.88986233 25.54851995-12.53984147 47.73539254-17.15978306 49.41621622-12.53984147 4.7063063-14.18982061-3.36164736-28.37964122-1.68082368-20.78973717 2.35315315-31.34960367 8.4041184-46.8594076 7.05945946-15.1798081-1.00849421-31.34960366-8.74028314-51.47934918-2.35315315-11.21985816 3.6978121-25.07968294 9.4126126-25.07968294 9.4126126l-41.90947017-77.99021878-9.2398832-108.24504505 15.50980394-111.6066924 145.5281602-22.1868726 68.63913225 73.2839125v-1e-8z"/>
        <path fill="none" stroke="rgb(0,0,0)" stroke-dasharray="0 0 0 0" stroke-linecap="butt" stroke-linejoin="miter" stroke-width="3.253" d="M828.5522752 632.21287154s28.0496454 66.8967825 28.0496454 103.53873874-26.72966208 55.8033462-37.61952441 81.35186615c-10.88986233 25.54851995-12.53984147 47.73539254-17.15978306 49.41621622-12.53984147 4.7063063-14.18982061-3.36164736-28.37964122-1.68082368-20.78973717 2.35315315-31.34960367 8.4041184-46.8594076 7.05945946-15.1798081-1.00849421-31.34960366-8.74028314-51.47934918-2.35315315-11.21985816 3.6978121-25.07968294 9.4126126-25.07968294 9.4126126l-41.90947017-77.99021878-9.2398832-108.24504505 15.50980394-111.6066924 145.5281602-22.1868726 68.63913225 73.2839125h0v-1e-8h0z"/>
        <path fill="rgb(255,255,255)" fill-rule="evenodd" d="M631.54476582 568.6777364s-22.43971631-25.88468468 139.25823946-127.406435c93.71881519-58.82882884 186.11764706-63.87129987 207.89737172-55.80334621 9.23988319 3.36164736 23.09970797 10.42110682 26.72966208 20.84221364 2.96996245 8.74028314-10.22987067 6.72329472-16.16979558 35.96962677-5.9399249 29.58249678 3.6299541 50.08854569 3.6299541 50.08854569s-45.20942844 20.84221364-61.0492282 58.82882883c-15.50980392 38.32277992-15.50980392 84.37734877-15.50980392 89.08365508 0 4.7063063-7.91989987 14.45508366-17.15978306 20.84221364-9.23988318 6.38712999-18.8097622 12.77425998-18.8097622 12.77425998s-17.15978306 1.68082368-31.34960367 0c-14.18982061-1.68082368-115.82853567-34.96113256-165.65790572-62.1904762-50.4893617-27.22934362-51.80934501-43.02908622-51.80934501-43.02908622"/>
      </g>
      <path fill="none" stroke="rgb(0,0,0)" stroke-dasharray="0 0 0 0" stroke-linecap="butt" stroke-linejoin="miter" stroke-width="3.253" d="M631.54476582 568.6777364s-22.43971631-25.88468468 139.25823946-127.406435c93.71881519-58.82882884 186.11764706-63.87129987 207.89737172-55.80334621 9.23988319 3.36164736 23.09970797 10.42110682 26.72966208 20.84221364 2.96996245 8.74028314-10.22987067 6.72329472-16.16979558 35.96962677-5.9399249 29.58249678 3.6299541 50.08854569 3.6299541 50.08854569s-45.20942844 20.84221364-61.0492282 58.82882883c-15.50980392 38.32277992-15.50980392 84.37734877-15.50980392 89.08365508 0 4.7063063-7.91989987 14.45508366-17.15978306 20.84221364-9.23988318 6.38712999-18.8097622 12.77425998-18.8097622 12.77425998s-17.15978306 1.68082368-31.34960367 0c-14.18982061-1.68082368-115.82853567-34.96113256-165.65790572-62.1904762-50.4893617-27.22934362-51.80934501-43.02908622-51.80934501-43.02908622h0z"/>
      <g>
        <path fill="rgb(0,0,0)" fill-rule="evenodd" d="M546.40584216 899.80000153s50.15936588-55.8033462 46.8594076-98.83243243c-2.96996246-43.02908623 1.64997914-47.73539254 1.64997914-47.73539254l42.239466 3.02548263s-4.6199416 58.82882883 6.26992073 86.05817246c10.88986233 27.22934363 28.0496454 44.7099099 28.0496454 44.7099099s-17.15978307 0-35.96954527-8.06795366c-18.8097622-8.06795367-34.31956613-11.0934363-42.239466-4.7063063-7.91989988 6.38712998-10.22987067 5.04247103-14.84981227 9.74877734-4.6199416 4.7063063-12.20984564 7.73178893-12.20984564 7.73178893-11.21985815 6.38712999-19.7997497 8.06795367-19.7997497 8.06795367"/>
        <path fill="rgb(66,156,89)" fill-rule="evenodd" d="M594.25523724 796.26126279s-50.15936587-34.96113256-57.74926992-54.12252252c-7.91989987-19.16138996-7.91989987-41.34826255 2.96996245-51.0970399 10.88986233-9.41261261 7.91989988-12.77425997 7.91989988-20.84221364 0-8.06795367 2.96996245-20.84221364-1.64997914-23.86769627-4.6199416-3.36164736-10.88986233-14.45508365-7.91989988-23.86769627 2.96996246-9.4126126 1.64997914-15.7997426 10.88986233-22.18687258 9.23988319-6.38713 9.23988319-4.7063063 9.23988319-15.7997426s-2.96996245-25.54851995 4.6199416-31.93564994l7.91989987-6.38713s-4.6199416-15.7997426 6.26992073-22.18687257c10.88986233-6.38713 10.88986233-11.0934363 12.53984147-19.16138996 1.64997914-8.06795367 6.26992073-23.86769627 18.8097622-20.84221365 12.53984147 3.02548263 17.15978306 0 17.15978306 0s4.6199416 0 7.91989988 12.77425998c3.29995828 12.77425997 9.23988319 22.18687259 14.1898206 28.57400257 4.6199416 6.38712999 9.2398832 12.77425998 10.88986234 19.16138996 1.64997914 6.38713 2.96996245 28.57400258 7.91989987 33.28030888 4.6199416 4.7063063 12.53984147 11.0934363 14.1898206 20.84221365 1.64997915 9.4126126 4.6199416 15.7997426 7.91989989 22.18687258 2.96996245 6.38712999 2.96996245 17.48056628 2.96996245 22.18687259 0 4.7063063 1.64997914 23.86769627 0 31.93564994-1.64997914 8.06795366 0 15.7997426-4.6199416 19.16138996-4.6199416 3.02548262-7.91989987 8.06795367-1.64997914 19.16138996 6.26992074 11.0934363 12.53984147 27.22934363 7.91989988 34.96113256-4.6199416 8.06795367-9.2398832 22.18687259-15.50980392 23.86769627-6.26992074 1.68082368-12.53984147-1.68082368-17.15978306 4.7063063-4.6199416 6.38713-9.2398832 11.0934363-14.18982061 14.45508366-4.94993743 3.36164736-10.88986233 4.7063063-10.88986233 4.7063063h-40.9194827v.33616474z"/>
      </g>
    </g>
  </g>
</svg>
